<svg id="svg" version="1.1" xmlns="http://www.w3.org/2000/svg" xmlns:xlink="http://www.w3.org/1999/xlink" width="400" height="76.20660457239627" viewBox="0, 0, 400,76.20660457239627"><g id="svgg"><path id="path0" d="M194.729 13.659 C 193.447 13.777,192.842 14.070,192.381 14.794 C 192.222 15.045,192.014 15.303,191.921 15.369 C 191.827 15.434,191.724 16.240,191.693 17.160 L 191.635 18.833 190.995 18.833 C 190.176 18.833,189.688 19.025,189.167 19.549 C 188.456 20.265,188.376 20.419,188.254 21.305 L 188.135 22.167 189.891 22.167 L 191.647 22.167 191.699 28.090 C 191.734 32.212,191.806 34.049,191.936 34.131 C 192.038 34.197,192.172 34.410,192.232 34.605 C 192.734 36.214,197.868 37.362,199.645 36.263 C 199.877 36.120,199.897 34.500,199.667 34.500 C 199.575 34.500,199.500 34.401,199.500 34.279 C 199.500 33.782,198.703 33.301,197.679 33.181 C 195.872 32.968,195.926 33.143,195.866 27.231 L 195.816 22.203 197.165 22.141 C 197.907 22.108,198.567 22.006,198.632 21.915 C 198.697 21.824,198.897 21.668,199.078 21.569 C 199.537 21.315,200.167 20.055,200.167 19.390 L 200.167 18.833 197.992 18.833 L 195.817 18.833 195.867 16.166 C 195.894 14.700,195.917 13.511,195.917 13.524 C 195.917 13.538,195.382 13.598,194.729 13.659 M344.580 30.083 C 344.580 37.600,344.600 40.651,344.625 36.863 C 344.650 33.074,344.650 26.924,344.625 23.196 C 344.600 19.467,344.579 22.567,344.580 30.083 M58.417 18.434 C 58.233 18.480,57.933 18.583,57.750 18.664 C 57.567 18.744,57.119 18.902,56.755 19.014 C 56.390 19.125,55.999 19.299,55.885 19.400 C 55.341 19.882,55.168 20.000,55.007 20.000 C 54.720 20.000,52.901 21.911,52.651 22.475 C 52.523 22.764,52.370 23.000,52.311 23.000 C 52.252 23.000,52.104 23.337,51.982 23.750 C 51.860 24.162,51.710 24.500,51.647 24.500 C 51.459 24.500,51.167 26.530,51.167 27.833 C 51.167 29.245,51.465 31.167,51.684 31.167 C 51.766 31.167,51.833 31.289,51.833 31.438 C 51.833 32.422,53.972 34.936,55.438 35.674 C 55.885 35.899,56.288 36.132,56.333 36.192 C 57.145 37.249,63.598 36.538,64.645 35.276 C 64.769 35.126,64.949 35.052,65.045 35.111 C 65.140 35.170,65.170 35.140,65.111 35.045 C 65.052 34.949,65.115 34.778,65.252 34.665 C 65.468 34.486,65.500 34.613,65.500 35.636 C 65.500 36.284,65.425 36.860,65.333 36.917 C 65.242 36.973,65.166 37.146,65.166 37.302 C 65.162 38.423,63.879 40.193,62.894 40.434 C 62.631 40.499,62.367 40.628,62.305 40.722 C 62.152 40.957,58.605 40.959,58.312 40.724 C 58.186 40.623,57.896 40.485,57.667 40.416 C 57.438 40.348,56.872 39.971,56.409 39.579 C 54.980 38.367,54.425 38.133,52.766 38.037 L 51.281 37.951 51.392 38.758 C 51.453 39.202,51.565 39.607,51.642 39.658 C 51.719 39.708,51.828 39.938,51.884 40.167 C 52.070 40.927,53.923 43.000,54.416 43.000 C 54.554 43.000,54.667 43.069,54.667 43.154 C 54.667 43.238,54.948 43.398,55.292 43.509 C 55.635 43.620,55.998 43.774,56.096 43.852 C 56.842 44.440,64.333 44.437,64.333 43.849 C 64.333 43.789,64.671 43.640,65.083 43.518 C 65.496 43.396,65.833 43.235,65.833 43.160 C 65.833 43.084,65.986 42.974,66.172 42.915 C 66.456 42.825,66.984 42.325,67.917 41.264 C 68.338 40.785,68.833 39.993,68.834 39.798 C 68.835 39.680,68.947 39.369,69.084 39.106 C 69.570 38.175,69.658 36.481,69.675 27.750 L 69.691 18.917 69.054 18.862 C 67.576 18.737,66.156 19.397,65.784 20.385 C 65.683 20.651,65.599 20.617,65.059 20.093 C 64.724 19.767,64.381 19.500,64.298 19.500 C 64.215 19.500,64.186 19.438,64.233 19.361 C 64.280 19.285,64.228 19.217,64.118 19.210 C 64.007 19.203,63.504 19.035,63.000 18.837 C 62.096 18.483,59.227 18.230,58.417 18.434 M80.667 18.446 C 80.347 18.491,80.009 18.587,79.917 18.661 C 79.825 18.735,79.487 18.849,79.167 18.915 C 78.632 19.026,77.533 19.581,77.333 19.841 C 77.287 19.901,77.063 20.048,76.833 20.168 C 76.604 20.288,76.315 20.529,76.191 20.704 C 76.067 20.879,75.857 20.981,75.724 20.930 C 75.586 20.877,75.527 20.909,75.588 21.007 C 75.645 21.100,75.454 21.448,75.163 21.780 C 74.455 22.586,73.673 24.312,73.552 25.336 C 73.498 25.793,73.389 26.167,73.310 26.167 C 73.116 26.167,73.126 28.929,73.321 29.294 C 73.407 29.453,73.557 30.029,73.656 30.574 C 73.754 31.119,73.897 31.606,73.974 31.657 C 74.050 31.708,74.195 31.992,74.296 32.288 C 74.517 32.934,74.625 33.075,75.945 34.437 C 77.105 35.635,78.629 36.452,80.008 36.615 C 80.467 36.670,80.883 36.779,80.931 36.857 C 81.047 37.044,84.333 37.044,84.333 36.857 C 84.333 36.778,84.739 36.671,85.235 36.620 C 87.660 36.370,90.950 33.630,91.282 31.585 L 91.384 30.957 89.900 31.037 C 88.335 31.121,87.052 31.617,85.957 32.561 C 85.000 33.387,81.516 33.623,80.245 32.947 C 79.180 32.381,78.002 30.988,78.001 30.292 C 78.000 30.131,77.933 30.000,77.852 30.000 C 77.770 30.000,77.675 29.756,77.640 29.458 L 77.576 28.917 82.163 28.964 C 84.686 28.990,86.900 28.944,87.083 28.861 C 87.267 28.779,87.790 28.622,88.246 28.513 C 89.213 28.281,90.448 27.137,90.611 26.321 C 90.665 26.049,90.775 25.786,90.855 25.737 C 91.046 25.619,91.043 23.880,90.852 23.762 C 90.771 23.711,90.656 23.410,90.596 23.092 C 90.536 22.774,90.195 22.144,89.837 21.691 C 89.480 21.239,89.220 20.823,89.260 20.768 C 89.300 20.712,89.285 20.702,89.227 20.745 C 89.168 20.789,88.887 20.637,88.602 20.410 C 87.444 19.484,87.010 19.231,86.155 18.986 C 85.749 18.870,85.327 18.707,85.217 18.624 C 84.992 18.455,81.564 18.320,80.667 18.446 M103.583 18.434 C 103.400 18.480,103.100 18.583,102.917 18.664 C 102.733 18.744,102.302 18.896,101.958 19.001 C 101.615 19.106,101.333 19.262,101.333 19.346 C 101.333 19.431,101.240 19.502,101.125 19.505 C 101.010 19.508,100.580 19.846,100.169 20.255 C 99.334 21.086,99.167 21.154,99.167 20.661 C 99.167 19.782,97.645 18.876,96.125 18.850 L 95.167 18.833 95.167 27.667 L 95.167 36.500 97.250 36.500 L 99.333 36.500 99.333 31.593 C 99.333 28.894,99.398 26.646,99.477 26.598 C 99.556 26.549,99.665 26.183,99.719 25.784 C 99.831 24.967,100.538 23.600,100.749 23.791 C 100.825 23.860,100.840 23.834,100.782 23.734 C 100.680 23.553,100.967 23.183,101.630 22.641 C 102.445 21.974,105.308 21.832,105.905 22.429 C 106.036 22.560,106.210 22.667,106.292 22.667 C 106.575 22.667,107.127 23.418,107.334 24.083 C 107.448 24.450,107.607 24.880,107.687 25.039 C 107.768 25.199,107.833 27.367,107.833 29.858 C 107.833 35.689,108.228 36.500,111.070 36.500 L 112.021 36.500 111.969 29.792 C 111.912 22.441,111.962 22.831,110.851 21.073 C 110.320 20.233,109.021 19.191,108.201 18.947 C 107.861 18.846,107.537 18.697,107.480 18.615 C 107.366 18.451,104.115 18.300,103.583 18.434 M123.167 18.444 C 122.846 18.488,122.512 18.593,122.425 18.679 C 122.338 18.764,122.118 18.833,121.936 18.833 C 121.231 18.833,118.357 20.590,117.955 21.267 C 117.884 21.386,117.734 21.583,117.621 21.705 C 117.207 22.152,116.710 22.934,116.584 23.337 C 116.513 23.564,116.389 23.793,116.308 23.845 C 115.527 24.349,115.543 31.108,116.327 31.833 C 116.376 31.879,116.591 32.264,116.804 32.688 C 117.723 34.518,120.335 36.378,122.317 36.612 C 122.790 36.668,123.216 36.779,123.265 36.857 C 123.391 37.062,126.667 37.039,126.667 36.833 C 126.667 36.742,126.858 36.667,127.093 36.667 C 127.587 36.667,129.044 36.326,129.167 36.181 C 129.212 36.127,129.621 35.896,130.075 35.667 C 131.674 34.862,133.355 32.687,133.615 31.090 L 133.710 30.500 132.303 30.500 C 130.628 30.500,129.850 30.810,128.769 31.906 C 126.932 33.769,123.481 33.909,121.629 32.195 C 121.283 31.875,121.000 31.545,121.000 31.461 C 121.000 31.378,120.897 31.206,120.770 31.080 C 120.644 30.953,120.487 30.565,120.421 30.217 C 120.356 29.869,120.230 29.539,120.140 29.484 C 119.934 29.356,119.927 26.043,120.133 25.780 C 120.218 25.672,120.340 25.358,120.405 25.083 C 120.580 24.339,121.519 23.041,122.042 22.820 C 122.294 22.713,122.500 22.570,122.500 22.501 C 122.500 21.491,127.376 22.007,128.376 23.123 C 129.990 24.925,130.150 25.000,132.375 25.000 L 133.709 25.000 133.598 24.302 C 133.536 23.918,133.364 23.348,133.215 23.034 C 133.066 22.720,132.944 22.362,132.944 22.239 C 132.944 22.116,132.882 22.053,132.806 22.101 C 132.729 22.148,132.667 22.124,132.667 22.047 C 132.667 21.908,131.307 20.470,130.727 19.996 C 130.188 19.556,129.053 19.025,128.390 18.903 C 128.038 18.838,127.705 18.715,127.649 18.630 C 127.538 18.460,124.097 18.317,123.167 18.444 M146.167 18.446 C 145.938 18.483,145.600 18.581,145.417 18.662 C 145.233 18.743,144.802 18.896,144.458 19.001 C 144.115 19.106,143.833 19.257,143.833 19.335 C 143.833 19.413,143.688 19.524,143.510 19.580 C 143.333 19.636,142.773 20.090,142.267 20.588 L 141.347 21.493 141.234 20.890 C 140.976 19.517,139.703 18.758,137.833 18.865 L 136.917 18.917 136.917 27.667 L 136.917 36.417 137.583 36.471 C 140.594 36.716,141.333 35.595,141.333 30.783 C 141.333 28.980,141.415 27.315,141.525 26.865 C 141.855 25.524,143.548 23.333,144.256 23.333 C 144.390 23.333,144.500 23.264,144.500 23.180 C 144.500 23.096,144.744 22.976,145.042 22.914 C 146.927 22.520,147.880 21.431,147.975 19.559 L 148.036 18.333 147.310 18.356 C 146.910 18.369,146.396 18.409,146.167 18.446 M156.501 18.446 C 156.180 18.491,155.843 18.587,155.751 18.661 C 155.659 18.735,155.321 18.849,155.000 18.916 C 154.365 19.048,152.869 19.894,152.093 20.561 C 151.824 20.792,151.544 20.944,151.471 20.899 C 151.397 20.853,151.382 20.932,151.436 21.075 C 151.491 21.217,151.451 21.333,151.348 21.333 C 151.244 21.333,151.075 21.518,150.972 21.745 C 150.869 21.971,150.719 22.115,150.638 22.066 C 150.558 22.016,150.506 22.037,150.523 22.113 C 150.555 22.250,149.975 23.670,149.672 24.197 C 149.045 25.289,149.028 29.686,149.646 31.083 C 149.727 31.267,149.932 31.754,150.102 32.167 C 151.002 34.357,153.569 36.346,155.841 36.615 C 156.301 36.670,156.716 36.779,156.765 36.857 C 156.891 37.062,160.167 37.039,160.167 36.833 C 160.167 36.742,160.348 36.667,160.571 36.667 C 161.188 36.667,162.667 36.294,162.667 36.138 C 162.667 36.062,162.798 36.000,162.958 35.999 C 164.061 35.997,166.886 32.995,167.116 31.582 L 167.218 30.952 165.591 31.037 C 164.696 31.084,163.916 31.193,163.857 31.279 C 163.798 31.365,163.487 31.542,163.167 31.672 C 162.640 31.885,162.357 32.070,161.773 32.583 C 160.482 33.717,154.838 33.361,155.129 32.164 C 155.154 32.060,155.108 32.017,155.026 32.067 C 154.692 32.273,153.500 30.237,153.500 29.460 L 153.500 29.000 158.157 29.000 C 161.082 29.000,162.852 28.938,162.917 28.833 C 162.973 28.742,163.205 28.667,163.432 28.667 C 164.488 28.667,166.248 27.302,166.442 26.333 C 166.497 26.054,166.608 25.786,166.688 25.737 C 166.879 25.619,166.877 23.880,166.686 23.762 C 166.604 23.711,166.491 23.421,166.434 23.117 C 166.333 22.580,166.066 22.133,165.452 21.474 C 165.288 21.298,165.206 21.071,165.270 20.968 C 165.333 20.866,165.311 20.827,165.221 20.883 C 165.131 20.939,164.826 20.782,164.544 20.534 C 163.696 19.790,163.277 19.500,163.049 19.500 C 162.931 19.500,162.833 19.435,162.833 19.355 C 162.833 19.275,162.477 19.120,162.042 19.009 C 161.606 18.899,161.104 18.729,160.926 18.632 C 160.578 18.444,157.461 18.313,156.501 18.446 M176.333 18.444 C 176.012 18.488,175.679 18.593,175.592 18.679 C 175.505 18.764,175.287 18.833,175.108 18.833 C 174.229 18.833,172.406 20.079,171.389 21.375 C 170.769 22.164,170.637 24.710,171.161 25.739 C 171.342 26.093,171.443 26.458,171.386 26.550 C 171.328 26.643,171.354 26.673,171.443 26.619 C 171.531 26.564,171.934 26.813,172.338 27.171 C 172.742 27.530,173.282 27.869,173.537 27.925 C 173.791 27.981,174.000 28.090,174.000 28.168 C 174.000 28.246,174.431 28.398,174.958 28.506 C 175.485 28.614,175.993 28.764,176.086 28.840 C 176.180 28.915,177.080 29.066,178.086 29.176 C 179.093 29.286,179.988 29.441,180.075 29.521 C 180.162 29.601,180.400 29.667,180.603 29.667 C 182.750 29.667,183.679 32.056,181.936 33.098 C 180.448 33.988,175.001 33.333,175.211 32.290 C 175.233 32.185,175.173 32.095,175.079 32.091 C 174.921 32.084,174.695 31.920,174.078 31.363 C 173.675 31.000,172.828 30.833,171.387 30.833 L 170.021 30.833 170.110 31.458 C 170.456 33.881,173.152 36.280,175.892 36.602 C 176.415 36.663,176.883 36.778,176.931 36.857 C 177.056 37.060,180.790 37.038,180.917 36.833 C 180.973 36.742,181.235 36.667,181.497 36.667 C 182.137 36.667,183.667 36.307,183.667 36.156 C 183.667 36.090,183.840 35.993,184.052 35.939 C 186.301 35.375,188.207 30.606,186.775 29.125 C 186.664 29.010,186.446 28.654,186.291 28.333 C 186.135 28.012,186.006 27.809,186.004 27.881 C 186.002 27.954,185.833 27.858,185.629 27.668 C 185.200 27.268,183.643 26.500,183.260 26.500 C 183.117 26.500,183.000 26.432,183.000 26.348 C 183.000 26.265,182.456 26.108,181.792 25.999 C 181.127 25.890,180.433 25.739,180.250 25.663 C 180.067 25.587,179.206 25.441,178.338 25.337 C 177.469 25.234,176.719 25.090,176.671 25.017 C 176.623 24.944,176.379 24.835,176.130 24.774 C 175.559 24.634,175.000 24.046,175.000 23.585 C 175.000 23.056,175.389 22.323,175.623 22.411 C 175.736 22.453,175.811 22.401,175.790 22.296 C 175.768 22.190,175.900 22.071,176.083 22.032 C 176.267 21.993,176.463 21.888,176.519 21.799 C 176.651 21.589,179.782 21.586,180.048 21.795 C 180.159 21.883,180.455 22.003,180.705 22.063 C 180.955 22.122,181.380 22.387,181.650 22.650 C 182.461 23.443,183.309 24.035,183.481 23.928 C 183.571 23.873,183.691 23.904,183.748 23.997 C 183.806 24.090,184.449 24.167,185.177 24.167 L 186.500 24.167 186.500 23.608 C 186.500 22.307,185.473 20.697,184.128 19.890 C 183.695 19.630,183.338 19.370,183.337 19.313 C 183.335 19.256,182.977 19.120,182.542 19.009 C 182.106 18.899,181.610 18.733,181.440 18.641 C 181.104 18.460,177.286 18.313,176.333 18.444 M83.627 21.818 C 83.786 21.901,84.217 22.050,84.583 22.148 C 85.180 22.309,85.970 22.924,86.658 23.763 C 86.952 24.120,86.979 25.201,86.697 25.295 C 86.585 25.333,86.388 25.469,86.259 25.598 C 86.069 25.788,85.220 25.833,81.845 25.833 L 77.667 25.833 77.667 25.417 C 77.667 25.188,77.742 25.000,77.833 25.000 C 77.925 25.000,78.000 24.887,78.000 24.748 C 78.000 23.741,79.519 22.251,80.749 22.051 C 81.075 21.998,81.382 21.890,81.431 21.811 C 81.549 21.620,83.259 21.625,83.627 21.818 M159.403 21.811 C 159.452 21.891,159.781 22.002,160.134 22.059 C 160.769 22.160,161.620 22.736,161.544 23.012 C 161.522 23.091,161.607 23.115,161.732 23.067 C 162.378 22.819,162.835 24.801,162.273 25.408 L 161.878 25.833 157.671 25.833 L 153.463 25.833 153.575 25.238 C 153.711 24.511,154.228 23.622,154.416 23.792 C 154.492 23.861,154.496 23.817,154.425 23.695 C 154.239 23.373,155.394 22.376,156.229 22.139 C 156.607 22.032,156.988 21.881,157.075 21.805 C 157.285 21.621,159.289 21.627,159.403 21.811 M62.158 22.180 C 62.621 22.280,63.000 22.430,63.000 22.514 C 63.000 22.598,63.082 22.667,63.183 22.667 C 63.529 22.667,64.354 23.371,64.269 23.594 C 64.217 23.730,64.270 23.783,64.407 23.731 C 64.555 23.674,64.731 23.916,64.927 24.447 C 65.091 24.889,65.303 25.354,65.400 25.480 C 65.660 25.819,65.634 29.539,65.372 29.626 C 65.259 29.664,65.167 29.799,65.167 29.927 C 65.167 30.464,64.619 31.517,64.386 31.428 C 64.248 31.375,64.194 31.410,64.257 31.511 C 64.386 31.719,63.597 32.430,63.005 32.638 C 60.837 33.402,59.574 33.360,57.917 32.469 C 57.306 32.141,56.399 31.165,56.125 30.543 C 56.014 30.290,55.856 30.035,55.773 29.977 C 55.402 29.713,55.603 25.958,56.040 25.000 C 56.554 23.875,57.388 22.915,57.697 23.093 C 57.818 23.163,57.861 23.158,57.792 23.083 C 57.223 22.455,60.388 21.801,62.158 22.180 M367.888 30.417 C 367.889 31.058,367.919 31.300,367.955 30.955 C 367.991 30.609,367.990 30.084,367.954 29.788 C 367.917 29.492,367.887 29.775,367.888 30.417 M267.128 31.121 C 267.428 31.158,267.878 31.157,268.128 31.119 C 268.378 31.081,268.133 31.051,267.583 31.052 C 267.033 31.053,266.828 31.084,267.128 31.121 M377.552 42.917 C 377.553 43.467,377.584 43.672,377.621 43.372 C 377.658 43.072,377.657 42.622,377.619 42.372 C 377.581 42.122,377.551 42.367,377.552 42.917 M248.705 50.667 C 248.705 50.987,248.740 51.119,248.782 50.958 C 248.823 50.798,248.823 50.535,248.782 50.375 C 248.740 50.215,248.705 50.346,248.705 50.667 M368.903 53.250 C 368.903 54.992,368.928 55.682,368.958 54.783 C 368.988 53.884,368.988 52.459,368.957 51.616 C 368.927 50.773,368.903 51.508,368.903 53.250 M370.574 55.000 C 370.574 57.704,370.597 58.810,370.625 57.458 C 370.653 56.106,370.653 53.894,370.625 52.542 C 370.597 51.190,370.574 52.296,370.574 55.000 M343.240 55.000 C 343.240 57.612,343.263 58.681,343.291 57.375 C 343.319 56.069,343.319 53.931,343.291 52.625 C 343.263 51.319,343.240 52.387,343.240 55.000 M360.902 53.250 C 360.902 54.900,360.927 55.552,360.958 54.700 C 360.988 53.847,360.988 52.497,360.957 51.700 C 360.927 50.902,360.902 51.600,360.902 53.250 M160.333 52.167 L 160.333 53.167 161.250 53.167 L 162.167 53.167 162.167 52.167 L 162.167 51.167 161.250 51.167 L 160.333 51.167 160.333 52.167 M241.942 51.613 C 240.988 51.874,240.466 52.962,240.896 53.793 C 241.170 54.324,241.146 54.941,240.853 54.875 C 240.750 54.852,240.679 54.890,240.694 54.958 C 240.708 55.027,240.626 55.308,240.511 55.583 C 239.819 57.239,242.105 58.676,243.733 57.610 C 244.133 57.348,244.202 57.345,244.433 57.576 C 244.772 57.915,245.667 57.920,245.667 57.583 C 245.667 57.446,245.604 57.333,245.528 57.333 C 245.157 57.333,244.982 56.573,245.240 56.078 C 245.693 55.209,245.591 54.500,245.013 54.500 C 244.599 54.500,244.509 54.581,244.410 55.042 C 244.243 55.823,244.170 55.888,243.821 55.572 C 243.649 55.416,243.555 55.212,243.613 55.119 C 243.671 55.025,243.637 54.999,243.537 55.060 C 243.071 55.349,243.203 54.750,243.736 54.160 C 244.065 53.796,244.333 53.398,244.333 53.274 C 244.333 52.813,243.960 52.000,243.748 52.000 C 243.627 52.000,243.503 51.931,243.472 51.847 C 243.403 51.658,242.360 51.499,241.942 51.613 M223.619 51.770 C 223.223 52.166,223.613 61.167,224.026 61.167 C 224.269 61.167,224.333 61.038,224.333 60.550 L 224.333 59.932 224.965 60.550 C 225.598 61.167,226.232 61.349,226.390 60.958 C 226.457 60.792,226.476 60.792,226.487 60.958 C 226.496 61.098,226.801 61.167,227.417 61.167 L 228.333 61.167 228.333 60.179 C 228.333 58.979,228.086 58.667,227.136 58.667 C 226.481 58.667,226.464 58.681,226.536 59.170 C 226.580 59.468,226.519 59.748,226.388 59.857 C 226.266 59.958,226.166 60.200,226.164 60.395 C 226.162 60.685,226.132 60.704,226.000 60.500 C 225.911 60.362,225.837 60.312,225.836 60.387 C 225.832 60.582,225.333 60.058,225.333 59.859 C 225.333 59.769,225.242 59.664,225.131 59.627 C 225.005 59.585,225.170 59.265,225.568 58.780 C 225.919 58.351,226.142 57.993,226.062 57.983 C 225.982 57.974,226.104 57.915,226.333 57.851 L 226.750 57.735 226.750 54.742 L 226.750 51.750 226.208 51.698 L 225.667 51.646 225.653 54.698 L 225.638 57.750 224.986 58.311 L 224.333 58.872 224.333 58.353 C 224.333 58.067,224.410 57.833,224.504 57.833 C 224.615 57.833,224.658 56.783,224.629 54.792 L 224.583 51.750 224.160 51.701 C 223.928 51.674,223.684 51.705,223.619 51.770 M227.799 54.742 L 227.848 57.833 228.428 57.833 L 229.008 57.833 228.962 54.792 L 228.917 51.750 228.333 51.701 L 227.750 51.651 227.799 54.742 M229.531 52.208 C 229.582 52.733,229.610 52.752,230.417 52.799 L 231.250 52.847 231.198 54.956 C 231.134 57.597,231.186 57.833,231.837 57.833 L 232.333 57.833 232.333 55.342 L 232.333 52.850 233.292 52.800 C 234.239 52.751,234.251 52.744,234.302 52.208 L 234.354 51.667 231.917 51.667 L 229.479 51.667 229.531 52.208 M234.833 54.750 L 234.833 57.833 235.959 57.833 C 238.546 57.833,239.833 56.806,239.833 54.741 C 239.833 53.436,238.848 52.000,237.952 52.000 C 237.806 52.000,237.640 51.925,237.583 51.833 C 237.527 51.742,236.885 51.667,236.157 51.667 L 234.833 51.667 234.833 54.750 M246.500 54.750 L 246.500 57.833 247.083 57.833 L 247.667 57.833 247.689 55.958 C 247.702 54.927,247.745 54.252,247.784 54.458 C 247.824 54.665,247.926 54.833,248.012 54.833 C 248.097 54.833,248.167 54.968,248.167 55.133 C 248.167 55.298,248.228 55.505,248.304 55.592 C 248.379 55.679,248.622 56.219,248.843 56.792 C 249.474 58.428,249.755 58.290,250.706 55.875 L 251.477 53.917 251.489 55.875 L 251.500 57.833 252.083 57.833 L 252.667 57.833 252.667 54.750 L 252.667 51.667 252.002 51.667 C 251.348 51.667,251.130 51.899,250.751 53.000 C 250.736 53.046,250.552 53.458,250.344 53.917 C 250.135 54.375,249.865 55.012,249.744 55.333 C 249.623 55.654,249.518 55.785,249.512 55.625 C 249.505 55.465,249.425 55.333,249.333 55.333 C 249.242 55.333,249.167 55.146,249.167 54.917 C 249.167 54.688,249.092 54.500,249.000 54.500 C 248.908 54.500,248.833 54.369,248.833 54.208 C 248.832 54.048,248.656 53.570,248.441 53.146 C 248.226 52.722,248.008 52.216,247.957 52.021 C 247.882 51.732,247.738 51.667,247.182 51.667 L 246.500 51.667 246.500 54.750 M353.728 53.250 C 353.728 54.167,353.756 54.520,353.790 54.036 C 353.824 53.552,353.823 52.802,353.789 52.369 C 353.755 51.937,353.727 52.333,353.728 53.250 M94.000 52.138 C 94.000 52.224,93.844 52.335,93.654 52.385 C 93.464 52.435,93.268 52.631,93.218 52.821 C 93.168 53.011,93.062 53.167,92.981 53.167 C 92.900 53.167,92.833 53.392,92.833 53.667 C 92.833 53.986,92.748 54.167,92.598 54.167 C 91.541 54.167,91.167 56.216,92.208 56.302 L 92.833 56.353 92.833 58.502 C 92.833 60.992,92.961 61.393,93.897 61.845 C 94.700 62.233,96.243 62.281,96.595 61.929 C 96.929 61.595,96.919 60.167,96.583 60.167 C 96.446 60.167,96.333 60.092,96.333 60.000 C 96.333 59.908,96.146 59.833,95.917 59.833 L 95.500 59.833 95.501 58.125 L 95.503 56.417 96.166 56.038 C 96.593 55.794,96.868 55.498,96.940 55.205 C 97.001 54.955,97.124 54.702,97.214 54.644 C 97.564 54.414,97.106 54.167,96.331 54.167 L 95.516 54.167 95.466 53.125 L 95.417 52.083 94.708 52.032 C 94.319 52.004,94.000 52.051,94.000 52.138 M127.167 53.500 L 127.167 54.667 126.500 54.667 L 125.833 54.667 125.833 55.333 C 125.833 55.997,125.836 56.000,126.484 56.000 L 127.135 56.000 127.195 58.375 C 127.237 60.055,127.325 60.872,127.496 61.167 C 127.629 61.396,127.726 61.627,127.711 61.681 C 127.697 61.734,127.775 61.789,127.884 61.802 C 127.994 61.815,128.473 61.874,128.949 61.933 C 130.300 62.101,130.620 61.961,130.695 61.168 L 130.759 60.500 130.052 60.500 C 129.097 60.500,129.000 60.262,129.000 57.928 L 129.000 56.000 129.917 56.000 L 130.833 56.000 130.833 55.333 L 130.833 54.667 129.917 54.667 L 129.000 54.667 129.000 53.500 L 129.000 52.333 128.083 52.333 L 127.167 52.333 127.167 53.500 M243.135 53.133 C 243.218 53.688,242.374 54.175,242.063 53.751 C 241.937 53.578,241.833 53.304,241.833 53.143 C 241.833 52.455,243.032 52.445,243.135 53.133 M237.841 53.047 C 239.399 54.275,238.785 56.541,236.869 56.633 L 235.833 56.683 235.833 54.758 L 235.833 52.833 236.708 52.839 C 237.190 52.842,237.699 52.935,237.841 53.047 M269.625 53.118 C 269.831 53.157,270.169 53.157,270.375 53.118 C 270.581 53.078,270.412 53.045,270.000 53.045 C 269.587 53.045,269.419 53.078,269.625 53.118 M65.333 54.328 C 65.196 54.405,64.765 54.554,64.377 54.657 C 63.191 54.973,62.329 56.971,62.961 57.937 C 63.199 58.301,64.385 59.000,64.763 59.000 C 64.974 59.000,65.193 59.075,65.250 59.167 C 65.307 59.258,65.600 59.333,65.902 59.333 C 66.718 59.333,67.498 59.646,67.389 59.929 C 67.290 60.186,65.667 60.281,65.667 60.031 C 65.667 59.709,64.425 59.319,63.505 59.352 L 62.554 59.386 62.673 60.035 C 62.932 61.450,64.275 62.198,66.550 62.195 C 67.357 62.194,68.114 62.113,68.234 62.014 C 68.353 61.915,68.645 61.818,68.884 61.798 C 69.122 61.778,69.290 61.734,69.256 61.700 C 69.166 61.611,69.732 61.043,69.850 61.104 C 70.043 61.203,70.014 58.879,69.816 58.445 C 69.603 57.977,68.472 57.333,67.864 57.333 C 67.664 57.333,67.500 57.258,67.500 57.167 C 67.500 57.071,68.023 57.000,68.735 57.000 C 70.120 57.000,70.272 56.766,69.570 55.715 C 69.399 55.459,69.276 55.194,69.296 55.125 C 69.317 55.056,69.277 55.015,69.208 55.034 C 69.140 55.053,68.843 54.941,68.550 54.784 C 68.257 54.628,67.830 54.500,67.601 54.500 C 67.373 54.500,67.140 54.425,67.083 54.333 C 66.959 54.133,65.685 54.129,65.333 54.328 M74.000 54.333 C 74.000 54.425,73.817 54.500,73.594 54.500 C 72.621 54.500,71.798 55.081,71.304 56.117 C 70.869 57.032,70.982 57.164,72.218 57.180 L 73.250 57.193 72.568 57.388 C 70.322 58.030,70.032 60.626,72.064 61.902 C 72.768 62.344,74.791 62.323,75.566 61.865 C 76.131 61.532,76.144 61.532,76.429 61.847 C 76.646 62.087,76.943 62.167,77.622 62.167 L 78.526 62.167 78.471 59.009 L 78.417 55.851 77.844 55.261 C 77.477 54.883,77.058 54.636,76.677 54.576 C 76.351 54.524,75.953 54.411,75.794 54.324 C 75.409 54.115,74.000 54.122,74.000 54.333 M83.333 54.323 C 82.386 54.840,81.912 54.955,81.693 54.721 C 81.538 54.555,81.168 54.499,80.445 54.534 L 79.417 54.583 79.417 58.333 L 79.417 62.083 80.693 62.132 L 81.969 62.180 82.026 59.691 C 82.088 56.997,82.253 56.500,83.083 56.500 C 83.881 56.500,84.000 56.908,84.000 59.645 L 84.000 62.181 85.292 62.132 L 86.583 62.083 86.688 59.750 C 86.819 56.833,86.786 57.071,87.095 56.762 C 88.002 55.855,88.500 56.600,88.501 58.863 C 88.501 60.924,88.803 61.833,89.488 61.833 C 89.667 61.833,89.860 61.908,89.917 62.000 C 89.973 62.092,90.278 62.167,90.593 62.167 L 91.167 62.167 91.167 59.261 C 91.167 57.663,91.096 56.170,91.010 55.944 C 90.764 55.297,89.893 54.500,89.432 54.500 C 89.205 54.500,88.973 54.425,88.917 54.333 C 88.790 54.129,87.887 54.112,87.763 54.312 C 87.714 54.392,87.453 54.501,87.183 54.555 C 86.913 54.609,86.536 54.820,86.346 55.025 C 86.079 55.312,86.000 55.337,86.000 55.135 C 86.000 54.991,85.756 54.783,85.458 54.673 C 85.160 54.563,84.786 54.403,84.627 54.319 C 84.277 54.135,83.675 54.136,83.333 54.323 M100.500 54.333 C 100.500 54.425,100.309 54.500,100.075 54.500 C 99.841 54.500,99.438 54.610,99.180 54.743 C 98.921 54.877,98.662 54.952,98.604 54.910 C 98.547 54.868,98.535 54.881,98.579 54.940 C 98.622 54.998,98.472 55.267,98.245 55.536 C 97.983 55.848,97.833 56.232,97.833 56.596 L 97.833 57.167 98.875 57.178 L 99.917 57.189 99.144 57.397 C 98.333 57.616,98.100 57.791,97.623 58.536 C 97.312 59.022,97.219 60.500,97.500 60.500 C 97.592 60.500,97.667 60.637,97.667 60.804 C 97.667 61.940,100.520 62.670,102.076 61.931 C 102.615 61.676,102.703 61.674,103.038 61.908 C 103.679 62.357,105.563 62.228,105.176 61.762 C 105.092 61.660,104.999 60.247,104.970 58.623 L 104.917 55.669 104.463 55.249 C 103.944 54.768,103.327 54.500,102.739 54.500 C 102.516 54.500,102.333 54.425,102.333 54.333 C 102.333 54.242,101.921 54.167,101.417 54.167 C 100.912 54.167,100.500 54.242,100.500 54.333 M341.205 54.833 C 341.205 55.154,341.240 55.285,341.282 55.125 C 341.323 54.965,341.323 54.702,341.282 54.542 C 341.240 54.381,341.205 54.512,341.205 54.833 M53.004 54.686 C 52.462 54.902,51.500 55.961,51.500 56.341 C 51.500 56.505,51.454 56.758,51.399 56.903 C 51.314 57.124,51.449 57.167,52.232 57.167 C 52.964 57.167,53.167 57.111,53.167 56.909 C 53.167 55.494,56.093 55.463,56.428 56.875 L 56.536 57.333 54.876 57.333 C 52.985 57.333,52.277 57.520,51.625 58.192 C 50.689 59.155,51.214 61.833,52.338 61.833 C 52.508 61.833,52.693 61.908,52.750 62.000 C 52.891 62.228,55.500 62.219,55.500 61.990 C 55.500 61.893,55.564 61.853,55.642 61.901 C 55.720 61.950,55.922 61.888,56.091 61.765 C 56.349 61.577,56.435 61.577,56.627 61.770 C 56.856 61.999,57.606 62.077,58.028 61.915 C 58.243 61.833,58.287 57.017,58.082 56.083 C 57.795 54.779,54.822 53.961,53.004 54.686 M111.285 54.668 C 110.313 54.960,109.167 56.453,109.167 57.428 C 109.167 57.651,109.092 57.833,109.000 57.833 C 108.789 57.833,108.784 58.413,108.991 58.794 C 109.078 58.953,109.192 59.359,109.246 59.696 C 109.679 62.413,114.766 63.123,116.151 60.659 C 116.862 59.393,115.684 58.897,114.597 60.005 C 114.330 60.277,114.010 60.500,113.887 60.500 C 113.763 60.500,113.518 60.590,113.341 60.700 C 113.089 60.858,112.921 60.853,112.552 60.678 C 112.294 60.556,111.918 60.380,111.717 60.287 C 111.515 60.195,111.242 59.849,111.110 59.518 L 110.870 58.917 113.810 58.833 C 116.747 58.750,116.750 58.750,116.806 58.356 C 116.836 58.139,116.780 57.880,116.681 57.781 C 116.581 57.681,116.500 57.431,116.500 57.225 C 116.500 55.241,113.794 53.915,111.285 54.668 M120.292 54.897 C 119.703 55.299,119.667 55.304,119.667 54.995 C 119.667 54.712,119.551 54.667,118.830 54.667 L 117.993 54.667 118.038 58.292 L 118.083 61.917 118.562 61.971 C 119.799 62.113,119.803 62.104,119.863 59.362 C 119.922 56.636,119.956 56.544,121.063 56.081 C 122.590 55.443,123.051 56.175,123.163 59.417 L 123.250 61.917 123.728 61.971 C 124.979 62.114,125.000 62.075,125.000 59.588 C 125.000 55.518,124.509 54.631,122.200 54.528 C 121.047 54.477,120.853 54.514,120.292 54.897 M133.352 54.680 C 130.477 55.831,130.391 60.269,133.213 61.820 C 133.912 62.204,136.500 62.338,136.500 61.990 C 136.500 61.893,136.566 61.854,136.646 61.904 C 136.910 62.067,138.209 61.051,138.440 60.501 C 138.802 59.639,138.743 59.500,138.014 59.500 C 137.186 59.500,136.833 59.635,136.833 59.952 C 136.833 60.110,136.738 60.166,136.575 60.103 C 136.425 60.046,136.359 60.074,136.419 60.170 C 136.475 60.261,136.385 60.378,136.219 60.430 C 136.053 60.482,135.786 60.594,135.627 60.679 C 135.261 60.874,134.667 60.880,134.667 60.688 C 134.667 60.607,134.441 60.497,134.165 60.441 C 133.849 60.378,133.592 60.185,133.471 59.920 C 133.366 59.689,133.217 59.500,133.140 59.500 C 133.063 59.500,133.000 59.350,133.000 59.167 C 133.000 58.846,133.111 58.833,135.913 58.833 L 138.827 58.833 138.935 58.404 C 138.995 58.162,138.961 57.894,138.854 57.788 C 138.751 57.685,138.667 57.425,138.667 57.210 C 138.667 55.255,135.583 53.788,133.352 54.680 M142.958 54.694 C 142.706 54.786,142.500 54.938,142.500 55.032 C 142.500 55.126,142.384 55.158,142.241 55.103 C 142.093 55.046,142.026 55.074,142.085 55.169 C 142.141 55.259,142.100 55.333,141.994 55.333 C 141.889 55.333,141.763 55.183,141.715 55.000 C 141.644 54.730,141.488 54.667,140.894 54.667 L 140.160 54.667 140.205 58.292 L 140.250 61.917 140.728 61.971 C 141.965 62.113,142.000 62.052,142.000 59.771 C 142.000 57.158,142.205 56.756,143.793 56.256 L 144.833 55.929 144.833 55.215 L 144.833 54.500 144.125 54.513 C 143.735 54.520,143.210 54.602,142.958 54.694 M148.171 54.686 C 147.945 54.776,147.700 54.940,147.627 55.050 C 147.530 55.196,147.448 55.172,147.322 54.958 C 147.199 54.750,146.938 54.667,146.413 54.667 L 145.676 54.667 145.630 59.875 L 145.583 65.083 146.458 65.026 L 147.333 64.969 147.333 63.237 L 147.333 61.506 147.922 61.836 C 148.560 62.194,150.833 62.322,150.833 62.000 C 150.833 61.908,150.981 61.833,151.161 61.833 C 152.116 61.833,153.333 59.804,153.333 58.213 C 153.333 55.429,150.744 53.659,148.171 54.686 M157.395 54.740 C 157.108 54.865,156.822 55.049,156.760 55.150 C 156.577 55.446,156.333 55.360,156.333 55.000 C 156.333 54.711,156.222 54.667,155.497 54.667 L 154.660 54.667 154.705 58.292 L 154.750 61.917 155.228 61.971 C 156.459 62.112,156.500 62.043,156.500 59.840 C 156.500 58.137,156.549 57.770,156.841 57.275 C 157.194 56.677,158.241 56.091,159.083 56.021 C 159.265 56.006,159.333 55.796,159.333 55.250 L 159.333 54.500 158.625 54.507 C 158.235 54.510,157.682 54.615,157.395 54.740 M164.833 54.711 C 162.201 56.003,163.705 58.977,167.000 58.996 C 167.707 59.000,168.667 59.530,168.667 59.917 C 168.667 60.293,167.708 60.833,167.039 60.833 C 166.131 60.833,165.000 60.172,165.000 59.641 C 165.000 59.564,164.587 59.500,164.083 59.500 C 163.091 59.500,162.969 59.651,163.375 60.377 C 165.132 63.520,171.368 62.363,170.199 59.110 C 170.044 58.681,169.787 58.288,169.627 58.237 C 169.466 58.186,169.225 58.034,169.089 57.899 C 168.951 57.761,168.220 57.570,167.422 57.463 C 166.640 57.358,166.000 57.211,166.000 57.136 C 166.000 57.061,165.897 57.000,165.770 57.000 C 165.291 57.000,165.154 56.576,165.509 56.195 C 166.163 55.493,167.675 55.691,168.222 56.550 C 168.943 57.684,170.414 56.946,169.820 55.749 C 169.307 54.715,166.160 54.060,164.833 54.711 M173.250 54.735 C 172.601 55.022,171.730 55.868,171.576 56.362 C 171.510 56.575,171.380 56.798,171.289 56.856 C 170.716 57.225,171.214 59.992,172.037 61.014 C 172.771 61.925,176.013 62.652,176.418 61.997 C 176.476 61.904,176.583 61.865,176.657 61.911 C 177.075 62.169,178.667 60.463,178.667 59.758 C 178.667 59.352,177.245 59.405,176.885 59.825 C 176.732 60.003,176.534 60.104,176.445 60.049 C 176.354 59.993,176.335 60.034,176.401 60.142 C 176.471 60.255,176.395 60.375,176.219 60.430 C 176.053 60.482,175.786 60.594,175.627 60.679 C 175.244 60.883,174.667 60.876,174.667 60.667 C 174.667 60.575,174.514 60.500,174.328 60.500 C 173.898 60.500,173.000 59.594,173.000 59.161 C 173.000 58.848,173.128 58.833,175.938 58.833 L 178.876 58.833 178.760 57.804 C 178.454 55.098,175.785 53.612,173.250 54.735 M160.372 58.292 L 160.417 61.917 160.895 61.971 C 161.158 62.001,161.552 61.981,161.770 61.927 L 162.167 61.827 162.167 58.247 L 162.167 54.667 161.247 54.667 L 160.327 54.667 160.372 58.292 M242.348 55.575 C 242.431 55.523,242.500 55.602,242.500 55.750 C 242.500 55.898,242.556 55.985,242.625 55.944 C 242.899 55.777,243.341 56.619,243.090 56.828 C 242.283 57.498,241.062 56.427,241.757 55.659 C 241.934 55.463,242.101 55.388,242.135 55.488 C 242.168 55.588,242.264 55.626,242.348 55.575 M113.800 56.070 C 114.346 56.358,114.833 56.915,114.833 57.252 C 114.833 57.457,114.503 57.500,112.917 57.500 C 111.179 57.500,111.000 57.472,111.000 57.199 C 111.000 56.181,112.705 55.494,113.800 56.070 M136.103 56.152 C 136.389 56.326,136.704 56.701,136.803 56.984 L 136.983 57.500 134.991 57.500 C 132.894 57.500,132.744 57.436,133.253 56.763 C 133.950 55.841,135.166 55.580,136.103 56.152 M150.561 56.259 C 151.319 56.786,151.959 59.333,151.333 59.333 C 151.242 59.333,151.167 59.440,151.167 59.571 C 151.167 60.320,148.848 60.873,148.145 60.292 C 147.416 59.689,146.927 57.385,147.488 57.198 C 147.586 57.166,147.667 57.038,147.667 56.914 C 147.667 56.089,149.666 55.637,150.561 56.259 M176.103 56.152 C 176.389 56.326,176.704 56.701,176.803 56.984 L 176.983 57.500 174.991 57.500 C 172.807 57.500,172.692 57.436,173.356 56.592 C 173.990 55.786,175.189 55.594,176.103 56.152 M353.729 57.917 C 353.729 58.925,353.757 59.316,353.790 58.786 C 353.823 58.255,353.823 57.430,353.789 56.952 C 353.756 56.474,353.729 56.908,353.729 57.917 M67.071 56.595 C 67.475 56.999,67.395 57.054,66.570 56.941 C 65.696 56.821,65.454 56.709,65.590 56.488 C 65.746 56.236,66.788 56.311,67.071 56.595 M75.593 56.570 C 76.065 56.915,75.829 57.024,74.738 56.967 C 73.817 56.919,73.785 56.903,74.064 56.625 C 74.418 56.273,75.151 56.246,75.593 56.570 M101.958 56.438 C 102.725 56.644,102.381 57.000,101.417 57.000 C 100.488 57.000,100.260 56.823,100.792 56.513 C 101.129 56.317,101.432 56.297,101.958 56.438 M233.000 59.093 L 233.000 60.520 232.375 60.468 C 231.477 60.394,231.397 59.401,232.292 59.441 C 232.759 59.462,232.833 59.411,232.833 59.066 C 232.833 58.352,231.011 58.635,230.995 59.352 C 230.992 59.492,230.917 59.452,230.804 59.250 C 230.541 58.780,230.578 58.803,229.868 58.673 C 228.698 58.459,228.500 58.650,228.500 59.995 C 228.500 61.127,228.514 61.167,228.908 61.167 C 229.282 61.167,229.320 61.095,229.366 60.293 C 229.443 58.962,230.000 58.913,230.000 60.238 C 230.000 61.305,230.816 61.759,230.846 60.708 C 230.854 60.440,230.900 60.353,230.957 60.497 C 231.208 61.136,232.676 61.487,232.890 60.958 C 232.957 60.792,232.976 60.792,232.987 60.958 C 233.035 61.715,233.818 61.122,233.866 60.293 C 233.943 58.962,234.500 58.913,234.500 60.238 C 234.500 61.056,234.540 61.167,234.833 61.167 C 235.131 61.167,235.167 61.056,235.167 60.117 C 235.167 58.951,234.997 58.667,234.300 58.667 C 233.893 58.667,233.833 58.603,233.833 58.167 C 233.833 57.744,233.769 57.667,233.417 57.667 C 233.005 57.667,233.000 57.683,233.000 59.093 M242.485 59.231 L 242.470 59.917 242.314 59.377 C 242.141 58.778,241.815 58.639,240.750 58.707 L 240.083 58.750 240.083 60.500 C 240.083 62.188,240.097 62.252,240.458 62.303 C 240.787 62.350,240.833 62.283,240.833 61.762 C 240.833 61.219,240.875 61.167,241.308 61.167 C 241.835 61.167,242.326 60.727,242.346 60.237 C 242.356 60.009,242.383 59.989,242.442 60.167 C 243.016 61.909,244.741 61.549,244.747 59.687 C 244.750 58.841,244.714 58.745,244.375 58.697 C 244.025 58.647,244.000 58.704,244.000 59.572 C 244.000 60.389,243.960 60.500,243.667 60.500 C 243.375 60.500,243.333 60.389,243.333 59.603 C 243.333 58.378,242.512 58.018,242.485 59.231 M56.413 59.185 C 56.271 59.830,55.706 60.500,55.303 60.500 C 55.136 60.500,55.000 60.575,55.000 60.667 C 55.000 60.758,54.700 60.833,54.333 60.833 C 53.967 60.833,53.667 60.766,53.667 60.685 C 53.667 60.603,53.488 60.491,53.270 60.437 C 52.876 60.338,52.678 59.870,52.793 59.314 C 52.887 58.865,53.509 58.690,55.055 58.678 L 56.526 58.667 56.413 59.185 M235.776 58.915 C 235.350 59.340,235.277 60.103,235.607 60.662 C 235.988 61.307,237.500 61.444,237.500 60.833 C 237.500 60.556,237.389 60.500,236.833 60.500 C 235.928 60.500,235.985 60.215,236.906 60.141 C 237.598 60.086,237.661 60.117,237.903 60.625 C 238.228 61.306,239.833 61.479,239.833 60.833 C 239.833 60.565,239.722 60.500,239.260 60.500 C 238.944 60.500,238.640 60.425,238.583 60.333 C 238.521 60.233,238.748 60.167,239.157 60.167 C 239.794 60.167,239.833 60.138,239.833 59.679 C 239.833 58.439,238.402 58.257,237.781 59.417 L 237.513 59.917 237.507 59.492 C 237.494 58.703,236.364 58.327,235.776 58.915 M245.000 59.923 C 245.000 61.056,245.030 61.167,245.333 61.167 C 245.622 61.167,245.667 61.056,245.667 60.345 C 245.667 59.656,245.723 59.504,246.017 59.411 C 246.507 59.256,246.747 59.543,246.481 59.968 C 246.048 60.662,246.511 61.167,247.580 61.167 L 248.500 61.167 248.500 60.179 C 248.500 58.800,248.347 58.685,246.497 58.683 L 245.000 58.680 245.000 59.923 M248.833 59.937 C 248.833 61.545,249.443 61.854,249.533 60.292 C 249.602 59.085,250.048 59.050,250.069 60.250 C 250.091 61.555,250.791 61.602,250.866 60.304 C 250.943 58.964,251.500 58.906,251.500 60.238 C 251.500 61.117,251.522 61.167,251.917 61.167 C 252.318 61.167,252.333 61.127,252.333 60.089 C 252.333 58.756,252.250 58.699,250.292 58.704 L 248.833 58.708 248.833 59.937 M75.768 59.264 C 75.712 59.409,75.667 59.596,75.667 59.680 C 75.667 59.764,75.554 59.833,75.417 59.833 C 75.279 59.833,75.167 59.912,75.167 60.009 C 75.167 60.303,73.642 60.123,73.443 59.806 C 73.116 59.284,73.590 59.000,74.788 59.000 C 75.705 59.000,75.854 59.040,75.768 59.264 M102.333 59.296 C 102.333 60.103,100.543 60.537,100.161 59.823 C 99.857 59.255,100.227 59.000,101.354 59.000 C 102.181 59.000,102.333 59.046,102.333 59.296 M241.552 59.683 C 241.681 60.173,241.519 60.500,241.149 60.500 C 240.914 60.500,240.833 60.380,240.833 60.028 C 240.833 59.280,241.379 59.018,241.552 59.683 M227.583 60.333 C 227.527 60.425,227.372 60.500,227.240 60.500 C 227.108 60.500,227.000 60.425,227.000 60.333 C 227.000 60.242,227.154 60.167,227.343 60.167 C 227.532 60.167,227.640 60.242,227.583 60.333 M247.833 60.333 C 247.833 60.425,247.641 60.500,247.407 60.500 C 247.165 60.500,247.025 60.428,247.083 60.333 C 247.140 60.242,247.332 60.167,247.510 60.167 C 247.688 60.167,247.833 60.242,247.833 60.333 " stroke="none" fill="#2a2c2c" fill-rule="evenodd"></path><path id="path1" d="M27.802 15.796 C 26.011 17.687,25.118 21.005,25.949 22.681 C 26.533 23.860,26.850 24.743,26.942 25.455 C 26.999 25.892,27.104 26.325,27.174 26.417 C 27.756 27.177,26.191 32.964,25.310 33.306 C 25.231 33.336,25.163 33.449,25.160 33.556 C 25.156 33.662,24.922 33.938,24.640 34.167 C 24.358 34.396,23.890 34.808,23.600 35.083 C 21.822 36.767,19.948 37.417,16.869 37.417 C 15.394 37.417,14.442 37.350,14.369 37.242 C 14.303 37.146,13.928 36.973,13.534 36.858 C 12.538 36.567,11.153 35.735,10.261 34.893 C 8.984 33.686,6.194 32.994,4.228 33.395 C 2.545 33.738,0.937 34.735,1.503 35.085 C 1.596 35.143,1.629 35.260,1.576 35.345 C 1.523 35.430,1.546 35.500,1.626 35.500 C 1.706 35.500,1.874 35.762,2.000 36.083 C 2.126 36.404,2.281 36.667,2.344 36.667 C 2.408 36.667,2.553 36.892,2.667 37.167 C 2.781 37.442,2.924 37.667,2.984 37.667 C 3.045 37.667,3.220 37.878,3.372 38.137 C 3.525 38.395,4.022 38.990,4.475 39.459 C 4.929 39.927,5.271 40.353,5.234 40.405 C 5.197 40.457,5.212 40.468,5.266 40.428 C 5.321 40.389,5.775 40.689,6.275 41.097 C 6.776 41.504,7.387 41.966,7.634 42.123 C 7.881 42.280,8.121 42.448,8.167 42.496 C 8.212 42.544,8.775 42.834,9.417 43.141 C 10.058 43.447,10.719 43.769,10.884 43.856 C 11.396 44.125,14.204 44.661,15.115 44.664 C 15.591 44.665,16.027 44.742,16.083 44.833 C 16.140 44.925,16.557 45.000,17.010 45.000 C 17.463 45.000,17.833 44.925,17.833 44.833 C 17.833 44.741,18.272 44.667,18.816 44.667 C 20.491 44.667,23.386 43.929,24.833 43.133 C 26.223 42.369,27.139 41.800,27.457 41.505 C 27.656 41.319,27.886 41.167,27.967 41.167 C 28.048 41.167,28.251 41.017,28.417 40.833 C 28.583 40.650,28.819 40.500,28.942 40.500 C 29.066 40.500,29.148 40.412,29.125 40.305 C 29.102 40.198,29.271 40.012,29.500 39.891 C 29.729 39.770,29.852 39.670,29.772 39.669 C 29.693 39.668,29.880 39.380,30.189 39.030 C 31.439 37.611,32.225 36.434,32.659 35.333 C 32.786 35.012,32.953 34.666,33.031 34.563 C 33.245 34.279,34.000 32.049,34.000 31.698 C 34.000 31.528,34.052 31.337,34.116 31.273 C 34.430 30.959,34.616 26.160,34.362 24.917 C 34.036 23.317,33.650 21.917,33.492 21.759 C 33.405 21.672,33.333 21.506,33.333 21.392 C 33.333 21.113,32.146 18.640,31.879 18.363 C 31.762 18.242,31.667 18.085,31.667 18.014 C 31.667 17.943,31.535 17.730,31.375 17.542 C 31.215 17.354,30.783 16.843,30.417 16.406 C 28.993 14.710,28.859 14.679,27.802 15.796 M223.000 17.469 C 223.000 17.785,224.782 19.309,227.648 21.444 C 228.529 22.101,229.421 22.795,229.631 22.986 C 229.840 23.177,230.058 23.333,230.115 23.333 C 230.172 23.333,230.451 23.506,230.734 23.718 C 231.249 24.102,232.598 24.943,233.630 25.525 C 233.931 25.695,234.287 25.833,234.422 25.833 C 234.556 25.833,234.667 25.900,234.667 25.981 C 234.667 26.131,234.804 26.169,236.583 26.507 C 237.718 26.723,240.777 26.629,241.263 26.364 C 241.439 26.267,241.827 26.090,242.125 25.970 C 242.423 25.850,242.667 25.695,242.667 25.626 C 242.667 25.557,242.812 25.500,242.990 25.500 C 243.168 25.500,243.356 25.431,243.408 25.347 C 243.460 25.263,243.971 24.931,244.543 24.610 C 245.115 24.288,245.749 23.870,245.951 23.679 C 246.154 23.489,246.398 23.333,246.493 23.333 C 246.589 23.333,246.667 23.258,246.667 23.167 C 246.667 23.075,246.748 23.000,246.848 23.000 C 247.038 23.000,249.676 20.844,250.652 19.891 C 250.964 19.585,251.657 19.054,252.192 18.709 C 254.156 17.444,253.377 17.122,251.333 18.355 C 248.244 20.218,247.562 20.610,247.042 20.821 C 246.744 20.942,246.500 21.106,246.500 21.187 C 246.500 21.267,246.350 21.333,246.167 21.333 C 245.983 21.333,245.833 21.408,245.833 21.500 C 245.833 21.592,245.683 21.667,245.500 21.667 C 245.317 21.667,245.167 21.742,245.167 21.833 C 245.167 21.925,245.052 22.000,244.911 22.000 C 244.770 22.000,244.483 22.112,244.273 22.250 C 243.726 22.608,241.625 23.302,240.167 23.604 C 236.792 24.305,232.479 22.948,226.906 19.432 C 226.166 18.965,225.416 18.492,225.239 18.380 C 223.291 17.154,223.000 17.036,223.000 17.469 " stroke="none" fill="#d22647" fill-rule="evenodd"></path><path id="path2" d="M237.708 1.203 C 237.502 1.303,237.333 1.434,237.333 1.494 C 237.333 1.554,237.200 1.749,237.036 1.927 C 236.447 2.567,235.172 6.565,235.168 7.784 C 235.167 8.179,234.927 8.255,233.250 8.396 C 232.792 8.434,232.292 8.516,232.139 8.579 C 231.929 8.664,231.751 8.496,231.405 7.887 C 227.190 0.470,224.722 1.168,225.552 9.542 L 225.681 10.833 225.257 10.833 C 225.024 10.833,224.833 10.895,224.833 10.970 C 224.833 11.045,224.590 11.222,224.292 11.363 L 223.751 11.619 222.417 10.375 C 218.419 6.647,216.024 6.332,216.389 9.582 C 216.543 10.956,217.803 14.473,218.200 14.639 C 218.584 14.799,218.278 15.511,217.555 16.139 C 216.785 16.809,216.772 16.813,216.347 16.526 C 214.788 15.476,211.797 14.333,210.608 14.333 C 208.014 14.333,208.454 16.632,211.781 20.446 C 213.015 21.861,212.966 21.660,212.306 22.637 C 212.016 23.066,211.773 23.429,211.764 23.445 C 211.756 23.460,211.074 23.331,210.250 23.158 C 204.264 21.899,201.966 23.295,205.037 26.324 C 205.693 26.971,206.279 27.500,206.339 27.500 C 206.399 27.500,206.659 27.681,206.916 27.902 C 207.173 28.123,207.579 28.404,207.817 28.527 C 208.055 28.649,208.287 28.787,208.333 28.833 C 208.379 28.879,208.626 29.025,208.881 29.157 C 209.195 29.318,209.312 29.480,209.242 29.656 C 209.185 29.799,209.099 30.151,209.051 30.438 L 208.963 30.960 207.273 31.079 C 202.021 31.449,200.074 32.566,201.508 34.389 C 201.873 34.853,204.664 36.333,205.174 36.333 C 205.342 36.333,205.527 36.408,205.583 36.500 C 205.640 36.592,205.865 36.667,206.083 36.667 C 206.302 36.667,206.527 36.742,206.583 36.833 C 206.640 36.925,206.907 37.000,207.177 37.000 C 207.446 37.000,207.667 37.075,207.667 37.167 C 207.667 37.258,207.783 37.333,207.924 37.333 C 208.136 37.333,208.173 37.532,208.133 38.444 L 208.083 39.554 206.750 40.010 C 204.081 40.924,202.047 42.103,201.579 43.009 C 201.157 43.824,202.022 45.000,203.044 45.000 C 203.258 45.000,203.505 45.069,203.592 45.153 C 203.772 45.327,206.913 45.667,208.341 45.667 L 209.290 45.667 209.504 46.458 C 209.622 46.894,209.788 47.341,209.874 47.452 C 209.983 47.593,209.863 47.752,209.473 47.983 C 209.167 48.165,208.842 48.376,208.750 48.453 C 208.613 48.568,207.488 49.365,206.754 49.867 C 203.539 52.065,203.434 54.347,206.544 54.474 C 207.921 54.531,211.717 53.919,212.462 53.521 C 212.700 53.393,212.849 53.508,213.278 54.157 L 213.802 54.949 212.906 56.075 C 211.921 57.310,210.667 59.227,210.667 59.496 C 210.667 59.590,210.592 59.667,210.500 59.667 C 210.408 59.667,210.333 59.812,210.333 59.990 C 210.333 60.168,210.258 60.360,210.167 60.417 C 209.894 60.585,209.985 61.720,210.305 62.137 C 211.138 63.220,213.274 62.654,217.094 60.338 L 218.105 59.725 218.791 60.291 L 219.477 60.857 219.255 61.485 C 219.133 61.830,218.876 62.439,218.684 62.838 C 218.491 63.236,218.333 63.652,218.333 63.762 C 218.333 63.872,218.222 64.177,218.086 64.439 C 216.783 66.949,217.482 69.579,219.295 68.987 C 220.111 68.721,221.602 67.766,221.869 67.338 C 221.985 67.152,222.168 67.000,222.276 67.000 C 222.384 67.000,222.497 66.931,222.528 66.846 C 222.558 66.761,223.094 66.164,223.717 65.519 L 224.851 64.348 225.702 64.721 L 226.553 65.094 226.516 66.422 C 226.495 67.152,226.408 67.821,226.322 67.908 C 226.119 68.115,226.120 70.420,226.324 70.794 C 226.411 70.953,226.527 71.365,226.582 71.708 C 227.063 74.715,230.190 72.736,232.254 68.119 L 232.750 67.009 233.625 67.004 C 234.358 67.001,234.500 67.049,234.500 67.300 C 234.500 67.465,234.568 67.671,234.652 67.758 C 234.736 67.845,234.843 68.292,234.889 68.750 C 234.975 69.583,235.273 70.813,235.787 72.457 C 236.498 74.732,238.104 75.214,239.222 73.488 C 239.753 72.667,241.000 68.171,241.000 67.075 C 241.000 67.034,241.483 67.000,242.073 67.000 C 242.664 67.000,243.193 66.925,243.250 66.833 C 243.466 66.484,244.110 66.660,244.318 67.125 C 244.505 67.542,245.161 68.622,246.316 70.417 C 246.907 71.334,247.722 72.327,247.887 72.330 C 247.962 72.332,248.136 72.446,248.274 72.583 C 250.044 74.354,251.288 70.070,250.358 65.407 L 250.223 64.730 251.173 64.204 L 252.122 63.678 252.536 64.131 C 256.593 68.567,259.667 69.572,259.667 66.462 C 259.667 65.534,258.106 61.018,257.664 60.667 C 256.980 60.123,258.580 58.424,259.324 58.903 C 259.558 59.055,260.537 59.554,261.500 60.014 C 262.462 60.473,263.380 60.920,263.539 61.008 C 263.699 61.095,263.975 61.167,264.155 61.167 C 264.334 61.167,264.527 61.242,264.583 61.333 C 264.746 61.597,266.137 61.527,266.585 61.234 C 267.567 60.590,266.847 57.889,265.323 56.500 C 265.172 56.362,264.582 55.674,264.011 54.969 L 262.973 53.688 263.433 52.886 C 263.686 52.444,263.915 52.054,263.942 52.018 C 263.969 51.983,264.949 52.165,266.120 52.423 C 273.651 54.081,274.541 51.556,268.000 47.091 C 267.221 46.559,266.561 46.105,266.534 46.082 C 266.507 46.059,266.570 45.703,266.674 45.291 L 266.863 44.541 268.556 44.428 C 273.215 44.117,274.833 43.526,274.833 42.135 C 274.833 40.902,272.012 39.333,268.125 38.406 C 267.685 38.302,267.667 38.255,267.667 37.246 L 267.667 36.194 269.042 35.741 C 276.696 33.218,276.675 30.347,269.000 30.057 C 266.451 29.961,266.619 30.033,266.291 28.889 L 266.045 28.028 267.189 27.246 C 267.818 26.816,268.333 26.398,268.333 26.316 C 268.333 26.234,268.430 26.167,268.548 26.167 C 268.901 26.167,271.101 24.059,271.394 23.440 C 271.890 22.397,271.568 21.333,270.758 21.333 C 270.627 21.333,270.468 21.249,270.404 21.146 C 270.234 20.871,266.596 21.196,266.258 21.516 C 266.171 21.599,265.830 21.667,265.500 21.667 C 265.170 21.667,264.829 21.734,264.742 21.816 C 263.796 22.709,261.978 21.403,262.630 20.299 C 262.781 20.043,262.964 19.833,263.036 19.833 C 263.108 19.833,263.167 19.727,263.167 19.597 C 263.167 19.467,263.233 19.336,263.314 19.306 C 263.549 19.217,265.591 15.974,265.806 15.350 C 266.371 13.703,265.902 13.000,264.241 13.000 C 263.569 13.000,262.973 13.075,262.917 13.167 C 262.860 13.258,262.668 13.333,262.490 13.333 C 262.312 13.333,262.167 13.408,262.167 13.500 C 262.167 13.592,262.017 13.667,261.833 13.667 C 261.650 13.667,261.500 13.734,261.500 13.815 C 261.500 13.897,261.331 14.008,261.125 14.061 C 260.919 14.115,260.124 14.533,259.358 14.991 C 258.105 15.740,257.940 15.797,257.710 15.567 C 257.569 15.426,257.276 15.194,257.060 15.053 C 256.572 14.733,256.572 14.694,257.083 13.635 C 257.313 13.160,257.500 12.687,257.500 12.583 C 257.500 12.480,257.657 12.071,257.849 11.673 C 258.307 10.725,258.728 8.629,258.598 7.938 C 258.154 5.568,255.382 6.614,251.881 10.472 C 251.323 11.087,251.137 11.203,250.973 11.040 C 250.859 10.926,250.632 10.833,250.467 10.833 C 250.302 10.833,250.167 10.758,250.167 10.667 C 250.167 10.575,250.008 10.500,249.814 10.500 C 249.504 10.500,249.476 10.435,249.578 9.958 C 249.795 8.936,249.877 4.644,249.683 4.449 C 249.582 4.349,249.500 4.094,249.500 3.882 C 249.500 1.565,246.346 2.641,245.124 5.375 C 245.011 5.627,244.871 5.833,244.812 5.833 C 244.753 5.833,244.658 5.965,244.600 6.125 C 244.298 6.961,243.340 8.415,243.101 8.403 C 242.954 8.395,242.542 8.376,242.186 8.361 C 241.467 8.330,241.402 8.227,241.167 6.750 C 240.474 2.391,239.265 0.453,237.708 1.203 M238.906 2.646 C 239.367 3.538,239.928 5.680,240.299 7.962 C 240.479 9.072,240.459 9.057,242.241 9.392 C 244.020 9.726,243.824 9.856,245.095 7.500 C 248.111 1.907,249.101 2.451,248.591 9.421 L 248.469 11.093 249.443 11.490 C 249.979 11.708,250.616 12.025,250.861 12.194 L 251.304 12.502 253.111 10.729 C 257.091 6.822,258.290 6.855,257.005 10.837 C 256.557 12.224,256.164 13.201,255.648 14.206 C 255.342 14.803,255.514 15.140,256.597 16.064 C 257.940 17.211,257.823 17.212,259.797 16.031 C 263.143 14.030,265.000 13.431,265.000 14.352 C 265.000 14.570,264.215 16.290,263.996 16.551 C 263.904 16.660,263.310 17.500,262.676 18.417 C 262.042 19.333,261.443 20.174,261.345 20.285 C 261.049 20.619,261.139 20.983,261.708 21.754 C 262.006 22.158,262.385 22.679,262.549 22.911 C 262.858 23.346,263.708 23.505,263.917 23.167 C 263.973 23.075,264.263 23.000,264.560 23.000 C 264.857 23.000,265.171 22.931,265.258 22.846 C 265.730 22.386,270.343 21.945,270.585 22.336 C 270.883 22.818,269.626 24.107,266.938 26.079 C 264.772 27.668,264.782 27.653,265.172 28.918 C 265.342 29.467,265.522 30.115,265.572 30.357 C 265.697 30.955,267.149 31.182,271.000 31.206 C 271.957 31.212,273.698 31.892,273.575 32.211 C 273.422 32.611,271.899 33.494,270.333 34.092 C 269.462 34.424,268.679 34.765,268.592 34.848 C 268.505 34.932,268.272 35.000,268.076 35.000 C 267.879 35.000,267.481 35.118,267.192 35.262 L 266.667 35.524 266.667 37.267 C 266.667 38.782,266.705 39.022,266.958 39.101 C 267.119 39.150,267.380 39.261,267.539 39.345 C 267.699 39.430,268.049 39.500,268.317 39.500 C 268.586 39.500,268.831 39.564,268.861 39.642 C 268.892 39.720,269.649 40.027,270.545 40.323 C 272.256 40.891,273.750 41.747,273.750 42.162 C 273.750 42.455,272.469 42.978,271.718 42.991 C 271.426 42.996,271.140 43.075,271.083 43.167 C 271.025 43.261,270.176 43.334,269.115 43.336 C 266.248 43.340,265.996 43.470,265.590 45.165 L 265.263 46.529 265.673 46.846 C 265.899 47.021,266.290 47.258,266.542 47.372 C 266.794 47.487,267.000 47.638,267.000 47.707 C 267.000 47.777,267.106 47.833,267.236 47.833 C 267.366 47.833,267.497 47.891,267.528 47.961 C 267.558 48.032,268.071 48.436,268.667 48.859 C 270.548 50.196,271.516 51.402,271.015 51.786 C 270.703 52.025,269.104 52.067,268.694 51.848 C 268.537 51.764,268.073 51.657,267.663 51.610 C 267.252 51.563,266.245 51.369,265.425 51.179 C 263.352 50.699,263.438 50.674,262.725 51.958 C 262.381 52.577,262.040 53.108,261.967 53.139 C 261.488 53.338,261.921 54.182,263.348 55.833 C 265.670 58.521,266.690 60.500,265.753 60.500 C 265.458 60.500,263.285 59.808,263.167 59.676 C 262.880 59.356,258.757 57.526,258.566 57.633 C 258.050 57.922,256.513 59.275,256.332 59.600 C 256.166 59.897,256.249 60.186,256.882 61.517 C 257.292 62.378,257.727 63.383,257.848 63.750 C 257.969 64.117,258.128 64.488,258.201 64.575 C 258.274 64.662,258.333 64.939,258.333 65.190 C 258.333 65.441,258.408 65.693,258.500 65.750 C 258.592 65.807,258.667 66.149,258.667 66.510 C 258.667 67.988,257.205 67.212,253.903 63.981 C 252.220 62.334,252.241 62.344,251.372 62.892 C 251.030 63.107,250.464 63.386,250.114 63.512 C 249.106 63.876,249.086 63.945,249.349 66.132 C 249.978 71.365,249.379 73.014,247.739 70.569 C 247.470 70.168,247.194 69.839,247.125 69.837 C 247.056 69.835,247.000 69.721,247.000 69.583 C 247.000 69.446,246.936 69.333,246.857 69.333 C 246.778 69.333,246.280 68.514,245.749 67.513 C 244.711 65.553,244.592 65.458,243.474 65.689 C 243.076 65.771,242.225 65.921,241.583 66.022 C 240.290 66.225,239.939 66.454,239.883 67.129 C 239.708 69.248,238.457 73.186,237.889 73.404 C 237.411 73.588,236.500 72.062,236.500 71.079 C 236.500 70.852,236.425 70.667,236.333 70.667 C 236.242 70.667,236.167 70.334,236.167 69.927 C 236.167 69.519,236.092 69.140,236.000 69.083 C 235.908 69.027,235.833 68.646,235.833 68.238 C 235.833 67.830,235.766 67.365,235.685 67.206 C 235.603 67.047,235.454 66.710,235.355 66.458 C 235.188 66.036,235.102 66.000,234.263 66.000 C 233.763 66.000,233.311 65.932,233.259 65.848 C 233.169 65.702,232.399 65.712,232.251 65.860 C 232.211 65.900,231.767 66.728,231.264 67.700 C 228.191 73.640,227.139 73.493,227.494 67.174 C 227.658 64.264,227.705 64.406,226.349 63.788 C 224.704 63.040,224.668 63.053,222.580 65.125 C 220.416 67.273,219.756 67.790,219.083 67.862 L 218.583 67.917 218.615 66.968 C 218.643 66.117,218.913 65.013,219.320 64.083 C 220.936 60.390,220.933 60.624,219.398 59.358 C 218.186 58.359,218.051 58.357,216.702 59.321 C 214.923 60.592,211.709 61.881,211.256 61.505 C 210.928 61.233,211.766 59.000,212.198 59.000 C 212.272 59.000,212.333 58.922,212.333 58.826 C 212.333 58.677,213.661 56.795,214.676 55.505 C 215.065 55.011,215.082 54.772,214.750 54.440 C 214.612 54.303,214.500 54.116,214.500 54.026 C 214.500 53.935,214.444 53.836,214.375 53.806 C 214.306 53.775,214.043 53.431,213.789 53.042 C 213.237 52.193,213.059 52.173,211.095 52.742 C 208.468 53.503,205.333 53.643,205.333 52.998 C 205.333 52.436,207.463 50.500,209.293 49.398 C 211.158 48.275,211.211 48.165,210.667 46.583 C 210.483 46.050,210.332 45.495,210.331 45.349 C 210.324 44.654,210.112 44.594,207.289 44.482 C 204.631 44.378,202.827 44.060,202.575 43.654 C 202.292 43.196,204.799 41.794,207.461 40.922 C 209.308 40.317,209.326 40.293,209.318 38.497 C 209.309 36.608,209.184 36.444,207.423 35.998 C 206.693 35.813,206.021 35.588,205.931 35.498 C 205.841 35.407,205.631 35.333,205.464 35.333 C 205.298 35.333,205.032 35.265,204.873 35.182 C 204.714 35.098,204.358 34.929,204.083 34.805 C 200.900 33.373,201.914 32.556,207.349 32.179 C 209.667 32.018,209.794 31.947,210.137 30.621 C 210.563 28.977,210.522 28.810,209.583 28.333 C 207.471 27.260,204.769 24.959,204.861 24.312 C 204.957 23.629,205.864 23.575,208.880 24.069 C 212.488 24.660,212.205 24.709,213.087 23.346 C 214.072 21.823,214.060 21.481,212.981 20.234 C 211.559 18.591,211.433 18.436,210.966 17.748 C 209.039 14.906,209.979 14.643,214.454 16.770 C 215.350 17.196,216.121 17.598,216.167 17.663 C 216.525 18.173,217.116 17.960,218.293 16.896 C 219.658 15.663,219.741 15.393,219.098 14.280 C 218.112 12.572,217.150 8.736,217.632 8.438 C 218.034 8.190,219.674 9.301,221.826 11.280 C 223.553 12.869,223.722 12.981,223.917 12.667 C 223.973 12.575,224.165 12.500,224.343 12.500 C 224.521 12.500,224.667 12.425,224.667 12.333 C 224.667 12.242,224.810 12.167,224.986 12.167 C 225.162 12.167,225.331 12.106,225.361 12.031 C 225.392 11.956,225.717 11.776,226.083 11.631 C 226.847 11.329,226.789 11.833,226.582 7.333 C 226.412 3.639,226.725 3.062,228.006 4.708 C 228.381 5.190,228.801 5.722,228.939 5.891 C 229.078 6.061,229.607 6.940,230.114 7.844 C 231.368 10.081,230.848 9.970,235.792 9.062 C 236.120 9.002,236.167 8.893,236.167 8.173 C 236.167 7.722,236.242 7.307,236.333 7.250 C 236.425 7.193,236.500 6.935,236.500 6.677 C 236.500 6.418,236.734 5.484,237.020 4.600 C 237.776 2.263,238.383 1.635,238.906 2.646 M289.333 30.254 L 289.333 44.008 292.292 43.962 L 295.250 43.917 295.293 30.208 L 295.335 16.500 292.334 16.500 L 289.333 16.500 289.333 30.254 M299.833 30.250 L 299.833 44.008 302.792 43.962 L 305.750 43.917 305.750 30.250 L 305.750 16.583 302.792 16.538 L 299.833 16.492 299.833 30.250 M310.500 30.250 L 310.500 44.000 313.417 44.000 L 316.333 44.000 316.333 30.250 L 316.333 16.500 313.417 16.500 L 310.500 16.500 310.500 30.250 M319.370 18.875 L 319.417 21.250 323.458 21.295 L 327.500 21.339 327.500 32.673 L 327.500 44.008 330.458 43.962 L 333.417 43.917 333.459 32.628 L 333.502 21.339 337.459 21.295 L 341.417 21.250 341.463 18.875 L 341.509 16.500 330.417 16.500 L 319.324 16.500 319.370 18.875 M344.667 30.261 L 344.667 44.022 351.792 43.964 L 358.917 43.906 360.263 43.455 C 364.227 42.127,366.413 39.316,367.650 33.956 C 368.464 30.431,366.876 21.000,365.469 21.000 C 365.395 21.000,365.333 20.915,365.333 20.810 C 365.333 20.226,362.810 18.026,361.451 17.425 C 359.570 16.593,358.555 16.500,351.340 16.500 L 344.667 16.500 344.667 30.261 M372.167 30.247 L 372.167 44.000 374.833 44.000 C 376.855 44.000,377.500 43.950,377.501 43.792 C 377.512 41.184,377.720 24.239,377.741 24.212 C 377.758 24.191,378.159 25.766,378.632 27.712 C 379.106 29.658,379.990 33.237,380.596 35.667 C 381.202 38.096,381.766 40.365,381.849 40.708 C 381.932 41.052,382.079 41.652,382.176 42.042 C 382.273 42.431,382.405 43.012,382.470 43.333 L 382.589 43.917 385.435 43.962 L 388.281 44.008 388.730 42.212 C 389.318 39.861,389.492 39.187,389.669 38.583 C 389.750 38.308,390.229 36.358,390.733 34.250 C 391.238 32.142,392.023 28.992,392.478 27.250 L 393.307 24.083 393.329 31.250 C 393.341 35.192,393.347 39.555,393.342 40.945 C 393.331 44.319,393.034 44.000,396.184 44.000 L 398.833 44.000 398.833 30.247 L 398.833 16.494 394.549 16.539 L 390.264 16.583 390.059 17.167 C 389.946 17.487,389.392 19.587,388.828 21.833 C 388.264 24.079,387.691 26.254,387.555 26.667 C 387.420 27.079,387.244 27.717,387.164 28.083 C 386.702 30.224,385.528 34.378,385.445 34.167 C 385.391 34.029,385.189 33.317,384.996 32.583 C 384.804 31.850,384.573 30.988,384.484 30.667 C 384.395 30.346,384.283 29.896,384.235 29.667 C 384.187 29.438,384.040 28.929,383.908 28.537 C 383.775 28.144,383.289 26.307,382.826 24.453 C 382.364 22.600,381.793 20.446,381.558 19.667 C 381.322 18.887,381.101 18.100,381.066 17.917 C 381.030 17.733,380.939 17.358,380.864 17.083 L 380.726 16.583 376.446 16.539 L 372.167 16.494 372.167 30.247 M355.818 21.496 C 360.734 21.903,362.613 25.609,361.690 33.083 C 361.092 37.926,359.767 38.949,353.875 39.119 L 350.500 39.216 350.500 30.275 L 350.500 21.333 352.208 21.336 C 353.148 21.338,354.772 21.410,355.818 21.496 M236.694 32.722 C 236.398 33.027,236.183 33.384,236.217 33.514 C 236.251 33.644,236.245 33.688,236.205 33.613 C 236.122 33.459,235.333 34.144,235.333 34.370 C 235.333 34.449,235.151 34.711,234.928 34.952 C 234.444 35.474,233.589 37.000,233.781 37.000 C 233.856 37.000,234.138 36.643,234.408 36.208 C 235.004 35.250,236.000 33.909,236.000 34.065 C 236.000 34.255,234.758 36.579,234.625 36.638 C 234.556 36.669,234.500 36.802,234.500 36.933 C 234.500 37.064,234.431 37.301,234.347 37.461 C 233.623 38.833,232.333 43.524,232.333 44.784 C 232.333 44.994,232.274 45.167,232.202 45.167 C 232.130 45.167,232.054 45.661,232.033 46.266 C 232.012 46.871,231.926 47.493,231.843 47.648 C 231.649 48.012,231.701 49.682,231.905 49.626 C 231.990 49.602,232.047 49.246,232.031 48.833 C 231.879 44.794,234.559 36.372,236.944 33.389 C 237.850 32.256,237.653 31.732,236.694 32.722 M239.167 32.378 C 239.167 32.602,239.915 33.802,240.230 34.083 C 240.590 34.405,241.975 37.265,242.489 38.750 C 242.775 39.575,243.055 40.362,243.113 40.500 C 243.170 40.637,243.236 40.839,243.259 40.948 C 243.282 41.058,243.383 41.395,243.482 41.698 C 243.741 42.486,244.500 47.069,244.500 47.847 C 244.500 48.206,244.575 48.500,244.667 48.500 C 244.926 48.500,244.710 45.500,244.390 44.667 C 244.338 44.529,244.268 44.160,244.236 43.846 C 244.078 42.309,241.825 35.684,241.341 35.333 C 241.277 35.287,241.175 35.137,241.114 35.000 C 241.052 34.862,240.802 34.450,240.557 34.083 C 240.285 33.677,240.226 33.511,240.406 33.659 C 240.568 33.793,240.962 34.312,241.282 34.812 C 241.602 35.312,241.968 35.825,242.095 35.952 C 242.221 36.078,242.454 36.460,242.612 36.799 C 242.770 37.139,242.942 37.454,242.995 37.500 C 243.192 37.670,244.132 39.613,244.427 40.458 C 244.595 40.940,244.793 41.333,244.866 41.333 C 244.940 41.333,245.000 41.516,245.000 41.740 C 245.000 41.964,245.075 42.193,245.167 42.250 C 245.258 42.307,245.333 42.567,245.333 42.829 C 245.333 43.091,245.401 43.331,245.484 43.361 C 245.689 43.437,246.464 46.969,246.602 48.458 C 246.664 49.123,246.788 49.667,246.879 49.667 C 247.245 49.667,246.501 45.175,245.895 43.724 C 245.768 43.421,245.677 43.115,245.692 43.045 C 245.707 42.974,245.658 42.767,245.584 42.583 C 245.509 42.400,245.228 41.688,244.960 41.000 C 243.468 37.182,239.167 30.780,239.167 32.378 M232.790 38.542 C 231.567 40.814,230.389 44.387,230.000 47.000 C 229.911 47.596,229.804 48.252,229.762 48.458 C 229.720 48.665,229.747 48.833,229.821 48.833 C 229.956 48.833,230.107 48.064,230.241 46.697 C 230.280 46.301,230.381 45.889,230.466 45.780 C 230.551 45.672,230.754 45.021,230.917 44.333 C 231.345 42.528,232.209 40.210,233.060 38.582 C 233.468 37.804,233.740 37.167,233.666 37.167 C 233.591 37.167,233.197 37.785,232.790 38.542 M229.616 49.232 C 229.548 49.406,229.531 49.587,229.579 49.635 C 229.731 49.787,229.865 49.538,229.801 49.221 C 229.743 48.931,229.734 48.932,229.616 49.232 M317.999 50.156 C 316.789 50.524,315.860 51.351,315.365 52.500 C 315.019 53.305,314.690 55.269,314.857 55.533 C 314.933 55.652,314.996 55.998,314.997 56.302 C 315.013 59.640,319.693 61.468,322.258 59.137 C 323.549 57.964,323.817 56.847,322.877 56.553 C 322.151 56.326,321.905 56.460,321.749 57.171 C 321.434 58.607,318.915 59.296,317.661 58.289 C 316.919 57.694,316.078 55.215,316.426 54.652 C 316.484 54.558,316.566 54.179,316.608 53.808 C 316.901 51.259,320.607 50.409,321.601 52.662 C 321.888 53.312,321.944 53.352,322.413 53.247 C 322.690 53.185,323.010 53.129,323.125 53.123 C 323.663 53.093,323.191 51.899,322.306 51.050 C 321.318 50.102,319.450 49.714,317.999 50.156 M287.742 50.377 C 287.698 50.493,287.681 52.687,287.706 55.252 L 287.750 59.917 288.542 59.967 L 289.333 60.018 289.333 58.293 L 289.333 56.568 289.995 55.922 L 290.657 55.276 291.034 55.755 C 291.241 56.019,291.568 56.463,291.760 56.742 C 292.915 58.421,293.766 59.610,293.942 59.792 C 294.346 60.210,297.291 60.069,297.419 59.625 C 297.478 59.419,297.720 58.744,297.956 58.125 L 298.386 57.000 300.276 57.000 C 301.316 57.000,302.167 57.069,302.167 57.152 C 302.167 57.236,302.398 57.911,302.681 58.652 L 303.196 60.000 304.015 60.000 C 305.098 60.000,305.119 60.171,303.586 56.583 C 303.048 55.325,302.282 53.443,301.688 51.917 L 301.038 50.250 300.216 50.201 L 299.393 50.151 298.453 52.534 C 297.935 53.844,297.290 55.517,297.019 56.250 C 296.103 58.726,295.750 59.461,295.571 59.266 C 295.478 59.165,294.749 58.183,293.950 57.083 C 293.150 55.983,292.353 54.893,292.176 54.660 L 291.856 54.236 292.648 53.410 C 293.084 52.955,293.941 52.116,294.554 51.545 C 295.912 50.277,295.924 50.167,294.711 50.167 L 293.756 50.167 291.545 52.429 L 289.333 54.690 289.333 52.429 L 289.333 50.167 288.578 50.167 C 288.123 50.167,287.791 50.250,287.742 50.377 M305.539 55.042 L 305.583 59.917 306.375 59.967 L 307.167 60.018 307.168 56.467 L 307.168 52.917 309.506 56.458 L 311.844 60.000 312.589 60.000 L 313.333 60.000 313.333 55.074 L 313.333 50.148 312.625 50.199 L 311.917 50.250 311.833 53.657 L 311.750 57.064 309.440 53.615 L 307.130 50.167 306.312 50.167 L 305.495 50.167 305.539 55.042 M324.833 55.083 L 324.833 60.018 325.611 59.967 L 326.389 59.917 326.350 57.708 L 326.310 55.500 328.697 55.500 L 331.083 55.500 331.027 57.345 C 330.949 59.882,330.988 60.000,331.922 60.000 L 332.672 60.000 332.628 55.125 L 332.583 50.250 331.833 50.250 L 331.083 50.250 331.083 52.209 L 331.083 54.167 328.696 54.167 L 326.308 54.167 326.351 52.208 L 326.394 50.250 325.614 50.199 L 324.833 50.148 324.833 55.083 M334.410 50.374 C 334.365 50.492,334.348 52.687,334.372 55.252 L 334.417 59.917 338.125 59.962 L 341.833 60.006 341.833 59.337 L 341.833 58.667 338.917 58.667 L 336.000 58.667 336.000 57.083 L 336.000 55.500 338.583 55.500 L 341.167 55.500 341.167 54.833 L 341.167 54.167 338.583 54.167 L 336.000 54.167 336.000 52.837 L 336.000 51.508 338.792 51.462 L 341.583 51.417 341.583 50.833 L 341.583 50.250 338.038 50.205 C 335.273 50.170,334.474 50.207,334.410 50.374 M343.333 55.083 L 343.333 60.000 347.000 60.000 L 350.667 60.000 350.667 59.333 L 350.667 58.667 347.750 58.667 L 344.833 58.667 344.833 57.083 L 344.833 55.500 347.510 55.500 L 350.187 55.500 350.135 54.875 L 350.083 54.250 347.458 54.204 L 344.833 54.158 344.833 52.829 L 344.833 51.500 347.667 51.500 L 350.500 51.500 350.500 50.833 L 350.500 50.167 346.917 50.167 L 343.333 50.167 343.333 55.083 M352.167 55.073 L 352.167 60.000 352.917 60.000 L 353.667 60.000 353.667 58.083 L 353.667 56.167 355.490 56.167 C 356.526 56.167,357.358 56.095,357.417 56.000 C 357.473 55.908,357.674 55.833,357.863 55.833 C 358.816 55.833,359.972 53.826,359.738 52.577 C 359.380 50.671,358.577 50.261,355.072 50.198 L 352.167 50.145 352.167 55.073 M361.033 53.875 C 361.144 59.338,361.610 60.083,364.916 60.083 C 368.273 60.083,368.730 59.372,368.803 54.042 L 368.855 50.167 368.094 50.167 L 367.333 50.167 367.321 53.125 C 367.314 54.752,367.280 56.233,367.247 56.417 C 367.213 56.600,367.141 56.991,367.087 57.284 C 366.834 58.647,364.444 59.109,363.207 58.034 C 362.749 57.637,362.644 56.870,362.556 53.292 L 362.480 50.167 361.718 50.167 L 360.957 50.167 361.033 53.875 M370.667 55.073 L 370.667 60.000 371.417 60.000 L 372.167 60.000 372.167 57.813 L 372.167 55.626 373.339 55.706 C 374.779 55.803,374.937 55.934,376.432 58.280 L 377.528 60.000 379.141 60.000 L 380.753 60.000 381.043 59.250 C 381.203 58.837,381.464 58.163,381.624 57.750 L 381.914 57.000 383.749 57.002 L 385.583 57.003 386.145 58.502 L 386.706 60.000 387.520 60.000 C 388.556 60.000,388.539 59.804,387.261 56.917 C 387.099 56.550,386.906 56.100,386.833 55.917 C 386.760 55.733,386.533 55.208,386.329 54.750 C 386.124 54.292,385.864 53.654,385.750 53.332 C 385.637 53.011,385.302 52.167,385.006 51.457 L 384.469 50.167 383.662 50.167 C 382.971 50.167,382.840 50.220,382.743 50.542 C 382.680 50.748,382.518 51.179,382.381 51.500 C 382.244 51.821,382.075 52.233,382.004 52.417 C 381.933 52.600,381.783 52.975,381.672 53.250 C 381.560 53.525,381.026 54.938,380.484 56.390 C 379.157 59.950,379.350 59.778,378.396 58.246 C 377.949 57.528,377.301 56.626,376.955 56.240 L 376.327 55.539 377.122 55.144 C 378.559 54.432,379.029 52.988,378.267 51.629 C 377.519 50.297,377.394 50.257,373.822 50.198 L 370.667 50.146 370.667 55.073 M389.000 55.083 L 389.000 60.000 389.833 60.000 L 390.667 60.000 390.680 56.375 C 390.687 54.381,390.719 52.825,390.752 52.917 C 390.784 53.008,391.238 54.433,391.761 56.083 C 392.284 57.733,392.776 59.155,392.856 59.242 C 392.935 59.329,393.000 59.539,393.000 59.709 C 393.000 60.534,394.519 60.003,394.790 59.083 C 394.925 58.625,395.101 58.100,395.180 57.917 C 395.260 57.733,395.670 56.496,396.091 55.167 C 396.512 53.837,396.883 52.675,396.915 52.583 C 396.947 52.492,396.980 54.123,396.987 56.208 L 397.000 60.000 397.750 60.000 L 398.500 60.000 398.500 55.083 L 398.500 50.167 397.443 50.167 L 396.386 50.167 396.082 51.208 C 395.914 51.781,395.715 52.321,395.638 52.408 C 395.562 52.495,395.500 52.724,395.500 52.917 C 395.500 53.109,395.434 53.338,395.353 53.425 C 395.273 53.512,394.923 54.502,394.576 55.625 C 393.817 58.084,393.877 58.069,393.217 55.957 C 392.924 55.018,392.366 53.331,391.978 52.208 L 391.271 50.167 390.135 50.167 L 389.000 50.167 389.000 55.083 M357.650 51.901 C 358.053 52.266,358.140 53.722,357.786 54.179 C 357.451 54.612,356.530 54.833,355.058 54.833 L 353.667 54.833 353.667 53.152 L 353.667 51.471 355.483 51.527 C 356.984 51.574,357.360 51.638,357.650 51.901 M376.483 51.901 C 376.935 52.311,376.971 53.496,376.542 53.867 C 376.030 54.310,375.157 54.500,373.642 54.500 L 372.167 54.500 372.167 52.982 L 372.167 51.465 374.149 51.524 C 375.812 51.574,376.188 51.635,376.483 51.901 M300.668 53.500 C 300.880 54.096,301.106 54.658,301.170 54.750 C 301.695 55.508,301.520 55.667,300.159 55.667 L 298.848 55.667 299.279 54.542 C 299.516 53.923,299.785 53.131,299.878 52.781 C 300.080 52.017,300.167 52.097,300.668 53.500 M384.008 52.961 C 384.222 53.633,384.603 54.575,384.847 55.039 C 385.142 55.597,385.013 55.667,383.684 55.667 L 382.368 55.667 382.934 54.144 C 383.245 53.307,383.500 52.515,383.500 52.384 C 383.500 51.971,383.801 52.314,384.008 52.961 " stroke="none" fill="#234c8c" fill-rule="evenodd"></path><path id="path3" d="M14.333 10.667 C 14.333 10.758,14.127 10.834,13.875 10.834 C 13.317 10.835,12.268 11.104,11.558 11.427 C 11.269 11.559,10.982 11.667,10.920 11.667 C 10.858 11.667,10.269 11.927,9.612 12.246 C 5.001 14.481,1.626 18.714,0.375 23.833 C 0.066 25.100,-0.107 30.384,0.144 30.913 C 0.232 31.098,0.380 31.662,0.474 32.167 C 0.567 32.671,0.804 33.444,1.001 33.886 L 1.359 34.688 1.804 34.392 C 3.968 32.954,6.511 32.850,8.917 34.100 C 9.933 34.629,10.038 34.656,9.729 34.312 C 9.144 33.659,8.193 32.114,8.075 31.625 C 8.014 31.373,7.907 31.167,7.837 31.167 C 7.080 31.167,7.209 25.511,8.003 23.867 C 8.185 23.491,8.333 23.104,8.333 23.008 C 8.333 22.912,8.391 22.833,8.462 22.833 C 8.533 22.833,8.724 22.590,8.887 22.292 C 9.516 21.138,12.366 18.670,13.073 18.666 C 13.170 18.665,13.442 18.564,13.678 18.441 C 14.245 18.145,14.771 18.021,16.240 17.835 C 19.315 17.445,21.787 14.960,21.970 12.074 L 22.038 11.021 21.019 10.906 C 20.458 10.842,20.000 10.725,20.000 10.645 C 20.000 10.565,18.725 10.500,17.167 10.500 C 15.389 10.500,14.333 10.562,14.333 10.667 M237.359 12.145 C 237.161 12.316,237.000 12.572,237.000 12.714 C 237.000 12.856,236.929 12.997,236.841 13.028 C 235.913 13.353,235.818 19.569,236.712 21.479 C 238.302 24.875,240.194 22.054,239.956 16.644 C 239.792 12.925,238.680 10.999,237.359 12.145 " stroke="none" fill="#fcbf04" fill-rule="evenodd"></path><path id="path4" d="M372.080 30.417 C 372.080 38.025,372.100 41.162,372.125 37.387 C 372.150 33.613,372.150 27.388,372.125 23.554 C 372.100 19.720,372.080 22.808,372.080 30.417 M222.333 24.936 C 220.838 25.073,220.833 25.076,220.833 26.045 L 220.833 26.917 224.208 26.918 C 229.429 26.919,233.319 28.211,235.638 30.714 L 236.026 31.132 235.260 32.108 C 233.833 33.925,232.504 35.921,231.834 37.253 C 231.696 37.527,231.546 37.787,231.500 37.833 C 230.159 39.170,227.229 50.054,227.913 51.160 C 227.979 51.268,229.013 51.333,230.665 51.333 C 233.727 51.333,233.421 51.561,233.585 49.167 C 233.742 46.868,234.433 42.699,235.008 40.583 C 235.539 38.626,235.592 38.477,236.143 37.359 C 236.339 36.961,236.500 36.562,236.500 36.473 C 236.500 36.383,236.725 35.983,237.000 35.583 C 237.275 35.184,237.500 34.789,237.500 34.707 C 237.500 34.530,238.308 33.745,238.387 33.847 C 239.138 34.810,240.257 36.955,240.767 38.410 C 241.358 40.092,242.500 44.628,242.500 45.292 C 242.500 45.602,242.567 45.982,242.649 46.136 C 242.731 46.290,242.843 46.942,242.899 47.583 C 242.954 48.225,243.040 49.012,243.089 49.333 C 243.139 49.654,243.218 50.235,243.266 50.625 L 243.354 51.333 246.033 51.333 L 248.713 51.333 248.597 49.911 C 248.408 47.580,247.439 43.000,247.135 43.000 C 247.061 43.000,247.000 42.779,247.000 42.510 C 247.000 42.240,246.925 41.973,246.833 41.917 C 246.742 41.860,246.667 41.631,246.667 41.407 C 246.667 41.183,246.606 41.000,246.533 41.000 C 246.459 41.000,246.262 40.606,246.093 40.125 C 245.263 37.749,241.778 32.220,240.731 31.617 C 240.160 31.288,240.571 30.807,242.500 29.549 C 245.628 27.510,247.909 26.922,252.708 26.919 L 256.167 26.917 256.167 26.049 L 256.167 25.182 255.542 25.050 C 254.139 24.755,248.348 24.918,246.603 25.302 C 243.398 26.008,240.649 27.299,238.811 28.962 L 238.371 29.359 237.394 28.623 C 233.559 25.733,228.133 24.404,222.333 24.936 M237.500 32.430 C 237.500 32.575,237.250 33.007,236.944 33.389 C 235.757 34.874,234.544 37.322,233.766 39.804 C 233.431 40.871,232.333 45.708,232.333 46.114 C 232.333 46.154,232.277 46.152,232.208 46.110 C 232.140 46.068,232.069 46.863,232.052 47.877 L 232.021 49.721 230.804 49.681 C 229.423 49.636,229.454 49.647,229.603 49.260 C 229.690 49.032,229.742 49.018,229.854 49.194 C 229.962 49.365,229.995 49.348,229.997 49.125 C 229.999 48.965,229.929 48.833,229.843 48.833 C 229.756 48.833,229.720 48.665,229.762 48.458 C 229.804 48.252,229.911 47.596,230.000 47.000 C 230.487 43.728,232.950 37.167,233.692 37.167 C 233.780 37.167,233.815 37.106,233.769 37.031 C 233.667 36.866,234.502 35.390,234.984 34.882 C 235.176 34.680,235.333 34.463,235.333 34.400 C 235.333 34.216,237.181 32.167,237.347 32.167 C 237.431 32.167,237.500 32.285,237.500 32.430 M240.387 33.237 C 242.200 35.374,243.868 38.207,244.960 41.000 C 245.228 41.688,245.509 42.400,245.584 42.583 C 245.658 42.767,245.707 42.974,245.692 43.045 C 245.677 43.115,245.768 43.421,245.895 43.724 C 246.244 44.559,246.800 47.102,246.927 48.444 L 247.040 49.638 245.845 49.694 C 244.687 49.748,244.654 49.739,244.743 49.385 C 244.793 49.185,244.751 48.969,244.649 48.906 C 244.520 48.826,244.532 48.749,244.691 48.648 C 244.857 48.543,244.862 48.504,244.708 48.503 C 244.578 48.501,244.500 48.257,244.500 47.847 C 244.500 47.069,243.741 42.486,243.482 41.698 C 243.383 41.395,243.282 41.058,243.259 40.948 C 243.236 40.839,243.170 40.637,243.113 40.500 C 243.055 40.362,242.775 39.575,242.489 38.750 C 241.975 37.265,240.590 34.405,240.230 34.083 C 239.915 33.802,239.167 32.602,239.167 32.378 C 239.167 31.955,239.497 32.188,240.387 33.237 M377.553 37.833 C 377.553 38.429,377.584 38.673,377.621 38.375 C 377.658 38.077,377.658 37.590,377.621 37.292 C 377.584 36.994,377.553 37.237,377.553 37.833 M377.559 40.583 C 377.559 41.408,377.587 41.767,377.622 41.380 C 377.657 40.993,377.657 40.318,377.623 39.880 C 377.588 39.442,377.560 39.758,377.559 40.583 M352.073 55.000 C 352.073 57.612,352.096 58.681,352.125 57.375 C 352.153 56.069,352.153 53.931,352.125 52.625 C 352.096 51.319,352.073 52.387,352.073 55.000 M326.396 52.417 C 326.396 53.425,326.424 53.816,326.457 53.286 C 326.490 52.755,326.490 51.930,326.456 51.452 C 326.422 50.974,326.395 51.408,326.396 52.417 M326.398 57.500 C 326.398 58.646,326.424 59.115,326.457 58.542 C 326.489 57.969,326.489 57.031,326.457 56.458 C 326.424 55.885,326.398 56.354,326.398 57.500 M372.542 55.786 C 372.794 55.824,373.206 55.824,373.458 55.786 C 373.710 55.748,373.504 55.717,373.000 55.717 C 372.496 55.717,372.290 55.748,372.542 55.786 " stroke="none" fill="#120b82" fill-rule="evenodd"></path></g></svg>